<svg xmlns="http://www.w3.org/2000/svg" xmlns:xlink="http://www.w3.org/1999/xlink" width="1080" zoomAndPan="magnify" viewBox="0 0 810 225" height="300" preserveAspectRatio="xMidYMid meet" version="1.0"><defs><clipPath id="id1"><path d="M 297.984375 5.484375 L 511.734375 5.484375 L 511.734375 219.234375 L 297.984375 219.234375 Z M 297.984375 5.484375 " clip-rule="nonzero"/></clipPath></defs><g clip-path="url(#id1)"><path fill="#282128" d="M 404.859375 5.484375 C 394.445312 93.5 386 101.945312 297.984375 112.359375 C 298.167969 112.382812 298.347656 112.402344 298.53125 112.425781 L 298.535156 112.425781 C 386.03125 122.8125 394.464844 131.40625 404.859375 219.234375 C 415.277344 131.222656 423.722656 122.777344 511.734375 112.359375 C 423.722656 101.945312 415.277344 93.5 404.859375 5.484375 Z M 404.859375 5.484375 " fill-opacity="1" fill-rule="nonzero"/></g><path stroke-linecap="butt" transform="matrix(3.75496, 0, 0, 3.75, 22.499999, 112.500005)" fill="none" stroke-linejoin="miter" d="M 0.00000024967 -0.00000141667 L 68.510418 -0.00000141667 " stroke="#282128" stroke-width="1" stroke-opacity="1" stroke-miterlimit="4"/><path stroke-linecap="butt" transform="matrix(3.75496, 0, 0, 3.75, 530.58425, 112.500005)" fill="none" stroke-linejoin="miter" d="M 0.000449434 -0.00000141667 L 68.510867 -0.00000141667 " stroke="#282128" stroke-width="1" stroke-opacity="1" stroke-miterlimit="4"/></svg>