<svg xmlns="http://www.w3.org/2000/svg" xmlns:xlink="http://www.w3.org/1999/xlink" width="500" zoomAndPan="magnify" viewBox="0 0 375 374.999991" height="500" preserveAspectRatio="xMidYMid meet" version="1.0"><defs><g/><clipPath id="id1"><path d="M 88.988281 90.324219 L 284.738281 90.324219 L 284.738281 286.074219 L 88.988281 286.074219 Z M 88.988281 90.324219 " clip-rule="nonzero"/></clipPath><clipPath id="id2"><path d="M 186.863281 90.324219 C 132.808594 90.324219 88.988281 134.144531 88.988281 188.199219 C 88.988281 242.253906 132.808594 286.074219 186.863281 286.074219 C 240.917969 286.074219 284.738281 242.253906 284.738281 188.199219 C 284.738281 134.144531 240.917969 90.324219 186.863281 90.324219 " clip-rule="nonzero"/></clipPath><clipPath id="id3"><path d="M 95.734375 96.183594 L 277.984375 96.183594 L 277.984375 278.433594 L 95.734375 278.433594 Z M 95.734375 96.183594 " clip-rule="nonzero"/></clipPath><clipPath id="id4"><path d="M 186.859375 96.183594 C 136.535156 96.183594 95.734375 136.984375 95.734375 187.308594 C 95.734375 237.636719 136.535156 278.433594 186.859375 278.433594 C 237.1875 278.433594 277.984375 237.636719 277.984375 187.308594 C 277.984375 136.984375 237.1875 96.183594 186.859375 96.183594 " clip-rule="nonzero"/></clipPath><clipPath id="id5"><path d="M 186.707031 77.578125 L 284.957031 77.578125 L 284.957031 139.828125 L 186.707031 139.828125 Z M 186.707031 77.578125 " clip-rule="nonzero"/></clipPath><clipPath id="id6"><path d="M 88.988281 225.960938 L 186.488281 225.960938 L 186.488281 297.960938 L 88.988281 297.960938 Z M 88.988281 225.960938 " clip-rule="nonzero"/></clipPath><clipPath id="id7"><path d="M 222.394531 88.269531 L 239.644531 88.269531 L 239.644531 105.519531 L 222.394531 105.519531 Z M 222.394531 88.269531 " clip-rule="nonzero"/></clipPath><clipPath id="id8"><path d="M 135.570312 269.425781 L 152.820312 269.425781 L 152.820312 286.675781 L 135.570312 286.675781 Z M 135.570312 269.425781 " clip-rule="nonzero"/></clipPath></defs><rect x="-37.5" width="450" fill="#ffffff" y="-37.499999" height="449.999989" fill-opacity="1"/><rect x="-37.5" width="450" fill="#ffffff" y="-37.499999" height="449.999989" fill-opacity="1"/><rect x="-37.5" width="450" fill="#f6f4ef" y="-37.499999" height="449.999989" fill-opacity="1"/><g clip-path="url(#id1)"><g clip-path="url(#id2)"><path stroke-linecap="butt" transform="matrix(0.749372, 0, 0, 0.749372, 88.990026, 90.324104)" fill="none" stroke-linejoin="miter" d="M 130.607054 0.000152503 C 58.473727 0.000152503 -0.00232809 58.476208 -0.00232809 130.609534 C -0.00232809 202.742861 58.473727 261.218916 130.607054 261.218916 C 202.74038 261.218916 261.216436 202.742861 261.216436 130.609534 C 261.216436 58.476208 202.74038 0.000152503 130.607054 0.000152503 " stroke="#000000" stroke-width="2" stroke-opacity="1" stroke-miterlimit="4"/></g></g><g clip-path="url(#id3)"><g clip-path="url(#id4)"><path stroke-linecap="butt" transform="matrix(0.751304, 0, 0, 0.751304, 95.736305, 96.184688)" fill="none" stroke-linejoin="miter" d="M 121.286493 -0.00145658 C 54.304026 -0.00145658 -0.00256942 54.305139 -0.00256942 121.287605 C -0.00256942 188.275272 54.304026 242.576668 121.286493 242.576668 C 188.274159 242.576668 242.575555 188.275272 242.575555 121.287605 C 242.575555 54.305139 188.274159 -0.00145658 121.286493 -0.00145658 " stroke="#000000" stroke-width="2" stroke-opacity="1" stroke-miterlimit="4"/></g></g><g clip-path="url(#id5)"><path fill="#f6f4ef" d="M 186.707031 139.824219 L 186.707031 77.578125 L 284.957031 77.578125 L 284.957031 139.824219 L 186.707031 139.824219 " fill-opacity="1" fill-rule="nonzero"/></g><g clip-path="url(#id6)"><path fill="#f6f4ef" d="M 88.992188 297.960938 L 88.992188 225.960938 L 186.480469 225.960938 L 186.480469 297.960938 L 88.992188 297.960938 " fill-opacity="1" fill-rule="nonzero"/></g><path stroke-linecap="butt" transform="matrix(0.75601, 0, 0, 0.705882, 145.127016, 278.069835)" fill="none" stroke-linejoin="miter" d="M 0.0025006 0.000675977 L 56.549382 0.000675977 " stroke="#000000" stroke-width="1" stroke-opacity="1" stroke-miterlimit="4"/><path stroke-linecap="butt" transform="matrix(0.75601, 0, 0, 0.705882, 186.144148, 96.537627)" fill="none" stroke-linejoin="miter" d="M 0.000506572 0.00203326 L 56.552555 0.00203326 " stroke="#000000" stroke-width="1" stroke-opacity="1" stroke-miterlimit="4"/><g clip-path="url(#id7)"><path fill="#000000" d="M 231.019531 88.269531 C 230.179688 95.371094 229.496094 96.050781 222.394531 96.894531 C 222.410156 96.894531 222.421875 96.898438 222.4375 96.898438 C 229.5 97.738281 230.179688 98.429688 231.019531 105.519531 C 231.859375 98.414062 232.542969 97.734375 239.644531 96.894531 C 232.542969 96.050781 231.859375 95.371094 231.019531 88.269531 Z M 231.019531 88.269531 " fill-opacity="1" fill-rule="nonzero"/></g><g clip-path="url(#id8)"><path fill="#000000" d="M 144.195312 269.425781 C 143.355469 276.53125 142.671875 277.210938 135.570312 278.050781 C 135.585938 278.054688 135.601562 278.054688 135.613281 278.058594 C 142.675781 278.894531 143.355469 279.589844 144.195312 286.675781 C 145.035156 279.574219 145.71875 278.894531 152.820312 278.050781 C 145.71875 277.210938 145.035156 276.53125 144.195312 269.425781 Z M 144.195312 269.425781 " fill-opacity="1" fill-rule="nonzero"/></g><g fill="#000000" fill-opacity="1"><g transform="translate(156.708628, 195.768595)"><g><path d="M 16.570312 0.207031 C 17.160156 0.207031 17.929688 0.148438 18.375 0 L 18.375 -0.355469 C 18.226562 -0.324219 18.078125 -0.324219 17.902344 -0.324219 C 16.894531 -0.324219 16.304688 -1.300781 14.882812 -4.851562 C 13.460938 -8.492188 12.902344 -10.296875 9.261719 -10.769531 C 13.109375 -11.214844 15.121094 -13.316406 15.121094 -16.097656 C 15.121094 -18.730469 13.34375 -20.710938 7.335938 -20.710938 L 1.507812 -20.710938 L 1.507812 -20.328125 C 2.425781 -20.0625 2.691406 -19.378906 2.691406 -16.953125 L 2.691406 -3.757812 C 2.691406 -1.332031 2.425781 -0.652344 1.507812 -0.382812 L 1.507812 0 L 6.300781 0 L 6.300781 -0.382812 C 5.386719 -0.652344 5.117188 -1.332031 5.117188 -3.757812 L 5.117188 -10.679688 L 7.011719 -10.679688 C 10.5625 -10.679688 10.800781 -8.609375 12.515625 -4.527344 C 13.816406 -1.449219 14.292969 0.207031 16.570312 0.207031 Z M 5.117188 -11.125 L 5.117188 -20.207031 C 5.59375 -20.238281 6.066406 -20.269531 6.507812 -20.269531 C 10.886719 -20.269531 12.605469 -18.046875 12.605469 -15.414062 C 12.605469 -12.902344 11.007812 -11.125 7.605469 -11.125 Z M 5.117188 -11.125 "/></g></g></g><g fill="#000000" fill-opacity="1"><g transform="translate(174.815713, 195.768595)"><g><path d="M 18.640625 0.207031 C 21.125 0.207031 24.261719 -2.957031 24.261719 -6.300781 C 24.261719 -8.167969 23.167969 -9.851562 21.511719 -10.621094 L 24.941406 -10.621094 L 25.089844 -11.035156 L 14.410156 -11.035156 L 14.261719 -10.621094 L 20.742188 -10.621094 C 21.660156 -10.296875 22.367188 -7.546875 22.367188 -5.769531 C 22.367188 -3.460938 22.074219 -1.125 20.683594 -1.125 C 18.878906 -1.125 14.617188 -5.117188 11.15625 -9.144531 C 9.082031 -11.570312 6.597656 -14.707031 6.597656 -17.160156 C 6.597656 -18.582031 7.605469 -20.355469 10.058594 -20.355469 C 11.746094 -20.355469 13.699219 -19.792969 15.121094 -16.480469 L 15.386719 -16.539062 L 15.058594 -19.972656 C 13.757812 -20.710938 12.101562 -20.917969 10.949219 -20.917969 C 6.332031 -20.917969 4.617188 -18.136719 4.617188 -15.949219 C 4.617188 -14.527344 5.207031 -13.136719 6.125 -11.628906 C 2.542969 -10.386719 0.859375 -8.078125 0.859375 -5.445312 C 0.859375 -2.367188 3.195312 0.296875 6.65625 0.296875 C 9.054688 0.296875 11.15625 -1.183594 12.574219 -3.875 C 14.882812 -1.597656 17.25 0.207031 18.640625 0.207031 Z M 2.929688 -6.507812 C 2.929688 -8.34375 3.699219 -10.296875 6.332031 -11.332031 C 7.128906 -10.089844 8.167969 -8.816406 9.320312 -7.457031 C 10.238281 -6.363281 11.242188 -5.207031 12.277344 -4.171875 C 11.183594 -2.308594 9.378906 -1.300781 7.839844 -1.300781 C 4.734375 -1.300781 2.929688 -3.933594 2.929688 -6.507812 Z M 2.929688 -6.507812 "/></g></g></g><g fill="#000000" fill-opacity="1"><g transform="translate(200.171549, 195.768595)"><g><path d="M 16.570312 0.207031 C 17.160156 0.207031 17.929688 0.148438 18.375 0 L 18.375 -0.355469 C 18.226562 -0.324219 18.078125 -0.324219 17.902344 -0.324219 C 16.894531 -0.324219 16.304688 -1.300781 14.882812 -4.851562 C 13.460938 -8.492188 12.902344 -10.296875 9.261719 -10.769531 C 13.109375 -11.214844 15.121094 -13.316406 15.121094 -16.097656 C 15.121094 -18.730469 13.34375 -20.710938 7.335938 -20.710938 L 1.507812 -20.710938 L 1.507812 -20.328125 C 2.425781 -20.0625 2.691406 -19.378906 2.691406 -16.953125 L 2.691406 -3.757812 C 2.691406 -1.332031 2.425781 -0.652344 1.507812 -0.382812 L 1.507812 0 L 6.300781 0 L 6.300781 -0.382812 C 5.386719 -0.652344 5.117188 -1.332031 5.117188 -3.757812 L 5.117188 -10.679688 L 7.011719 -10.679688 C 10.5625 -10.679688 10.800781 -8.609375 12.515625 -4.527344 C 13.816406 -1.449219 14.292969 0.207031 16.570312 0.207031 Z M 5.117188 -11.125 L 5.117188 -20.207031 C 5.59375 -20.238281 6.066406 -20.269531 6.507812 -20.269531 C 10.886719 -20.269531 12.605469 -18.046875 12.605469 -15.414062 C 12.605469 -12.902344 11.007812 -11.125 7.605469 -11.125 Z M 5.117188 -11.125 "/></g></g></g><g fill="#000000" fill-opacity="1"><g transform="translate(120.275008, 236.884031)"><g><path d="M 3.875 0 C 3.8125 0 3.769531 -0.03125 3.75 -0.09375 L 2.640625 -2.453125 C 2.628906 -2.472656 2.613281 -2.484375 2.59375 -2.484375 L 1.46875 -2.484375 C 1.4375 -2.484375 1.421875 -2.472656 1.421875 -2.453125 L 1.421875 -0.125 C 1.421875 -0.0820312 1.410156 -0.0507812 1.390625 -0.03125 C 1.367188 -0.0078125 1.335938 0 1.296875 0 L 0.78125 0 C 0.738281 0 0.707031 -0.0078125 0.6875 -0.03125 C 0.664062 -0.0507812 0.65625 -0.0820312 0.65625 -0.125 L 0.65625 -5.484375 C 0.65625 -5.523438 0.664062 -5.554688 0.6875 -5.578125 C 0.707031 -5.597656 0.738281 -5.609375 0.78125 -5.609375 L 2.890625 -5.609375 C 3.210938 -5.609375 3.492188 -5.539062 3.734375 -5.40625 C 3.972656 -5.269531 4.160156 -5.082031 4.296875 -4.84375 C 4.429688 -4.601562 4.5 -4.328125 4.5 -4.015625 C 4.5 -3.648438 4.398438 -3.335938 4.203125 -3.078125 C 4.003906 -2.816406 3.738281 -2.640625 3.40625 -2.546875 C 3.382812 -2.535156 3.375 -2.519531 3.375 -2.5 L 4.515625 -0.140625 L 4.53125 -0.078125 C 4.53125 -0.0234375 4.492188 0 4.421875 0 Z M 1.46875 -4.9375 C 1.4375 -4.9375 1.421875 -4.925781 1.421875 -4.90625 L 1.421875 -3.125 C 1.421875 -3.101562 1.4375 -3.09375 1.46875 -3.09375 L 2.796875 -3.09375 C 3.066406 -3.09375 3.289062 -3.175781 3.46875 -3.34375 C 3.644531 -3.507812 3.734375 -3.734375 3.734375 -4.015625 C 3.734375 -4.296875 3.644531 -4.519531 3.46875 -4.6875 C 3.300781 -4.851562 3.078125 -4.9375 2.796875 -4.9375 Z M 1.46875 -4.9375 "/></g></g></g><g fill="#000000" fill-opacity="1"><g transform="translate(128.779066, 236.884031)"><g><path d="M 4.375 -5.0625 C 4.375 -5.019531 4.363281 -4.988281 4.34375 -4.96875 C 4.320312 -4.945312 4.289062 -4.9375 4.25 -4.9375 L 1.46875 -4.9375 C 1.4375 -4.9375 1.421875 -4.921875 1.421875 -4.890625 L 1.421875 -3.1875 C 1.421875 -3.164062 1.4375 -3.15625 1.46875 -3.15625 L 3.375 -3.15625 C 3.40625 -3.15625 3.429688 -3.144531 3.453125 -3.125 C 3.472656 -3.101562 3.484375 -3.070312 3.484375 -3.03125 L 3.484375 -2.609375 C 3.484375 -2.566406 3.472656 -2.535156 3.453125 -2.515625 C 3.429688 -2.492188 3.40625 -2.484375 3.375 -2.484375 L 1.46875 -2.484375 C 1.4375 -2.484375 1.421875 -2.472656 1.421875 -2.453125 L 1.421875 -0.703125 C 1.421875 -0.671875 1.4375 -0.65625 1.46875 -0.65625 L 4.25 -0.65625 C 4.289062 -0.65625 4.320312 -0.644531 4.34375 -0.625 C 4.363281 -0.601562 4.375 -0.578125 4.375 -0.546875 L 4.375 -0.125 C 4.375 -0.0820312 4.363281 -0.0507812 4.34375 -0.03125 C 4.320312 -0.0078125 4.289062 0 4.25 0 L 0.78125 0 C 0.738281 0 0.707031 -0.0078125 0.6875 -0.03125 C 0.664062 -0.0507812 0.65625 -0.0820312 0.65625 -0.125 L 0.65625 -5.484375 C 0.65625 -5.515625 0.664062 -5.539062 0.6875 -5.5625 C 0.707031 -5.582031 0.738281 -5.59375 0.78125 -5.59375 L 4.25 -5.59375 C 4.289062 -5.59375 4.320312 -5.582031 4.34375 -5.5625 C 4.363281 -5.539062 4.375 -5.515625 4.375 -5.484375 Z M 4.375 -5.0625 "/></g></g></g><g fill="#000000" fill-opacity="1"><g transform="translate(137.163128, 236.884031)"><g><path d="M 2.390625 0.0625 C 1.984375 0.0625 1.628906 0 1.328125 -0.125 C 1.035156 -0.25 0.804688 -0.429688 0.640625 -0.671875 C 0.484375 -0.910156 0.40625 -1.1875 0.40625 -1.5 L 0.40625 -1.6875 C 0.40625 -1.726562 0.414062 -1.757812 0.4375 -1.78125 C 0.457031 -1.800781 0.484375 -1.8125 0.515625 -1.8125 L 1.03125 -1.8125 C 1.070312 -1.8125 1.101562 -1.800781 1.125 -1.78125 C 1.144531 -1.757812 1.15625 -1.726562 1.15625 -1.6875 L 1.15625 -1.53125 C 1.15625 -1.257812 1.269531 -1.035156 1.5 -0.859375 C 1.738281 -0.679688 2.050781 -0.59375 2.4375 -0.59375 C 2.800781 -0.59375 3.078125 -0.671875 3.265625 -0.828125 C 3.453125 -0.984375 3.546875 -1.1875 3.546875 -1.4375 C 3.546875 -1.601562 3.5 -1.742188 3.40625 -1.859375 C 3.3125 -1.984375 3.171875 -2.09375 2.984375 -2.1875 C 2.804688 -2.289062 2.539062 -2.410156 2.1875 -2.546875 C 1.789062 -2.691406 1.476562 -2.828125 1.25 -2.953125 C 1.03125 -3.078125 0.84375 -3.238281 0.6875 -3.4375 C 0.539062 -3.632812 0.46875 -3.882812 0.46875 -4.1875 C 0.46875 -4.644531 0.628906 -5.003906 0.953125 -5.265625 C 1.285156 -5.523438 1.734375 -5.65625 2.296875 -5.65625 C 2.691406 -5.65625 3.035156 -5.585938 3.328125 -5.453125 C 3.628906 -5.328125 3.859375 -5.144531 4.015625 -4.90625 C 4.179688 -4.664062 4.265625 -4.390625 4.265625 -4.078125 L 4.265625 -3.953125 C 4.265625 -3.910156 4.253906 -3.878906 4.234375 -3.859375 C 4.210938 -3.835938 4.1875 -3.828125 4.15625 -3.828125 L 3.625 -3.828125 C 3.59375 -3.828125 3.566406 -3.835938 3.546875 -3.859375 C 3.523438 -3.878906 3.515625 -3.90625 3.515625 -3.9375 L 3.515625 -4.03125 C 3.515625 -4.3125 3.398438 -4.539062 3.171875 -4.71875 C 2.953125 -4.90625 2.648438 -5 2.265625 -5 C 1.929688 -5 1.671875 -4.929688 1.484375 -4.796875 C 1.304688 -4.660156 1.21875 -4.460938 1.21875 -4.203125 C 1.21875 -4.023438 1.265625 -3.878906 1.359375 -3.765625 C 1.453125 -3.660156 1.585938 -3.5625 1.765625 -3.46875 C 1.941406 -3.382812 2.210938 -3.273438 2.578125 -3.140625 C 2.960938 -2.984375 3.269531 -2.84375 3.5 -2.71875 C 3.738281 -2.59375 3.929688 -2.425781 4.078125 -2.21875 C 4.234375 -2.019531 4.3125 -1.769531 4.3125 -1.46875 C 4.3125 -1.164062 4.234375 -0.894531 4.078125 -0.65625 C 3.929688 -0.425781 3.707031 -0.25 3.40625 -0.125 C 3.113281 0 2.773438 0.0625 2.390625 0.0625 Z M 2.390625 0.0625 "/></g></g></g><g fill="#000000" fill-opacity="1"><g transform="translate(145.467182, 236.884031)"><g><path d="M 4.171875 -5.59375 C 4.210938 -5.59375 4.242188 -5.582031 4.265625 -5.5625 C 4.285156 -5.539062 4.296875 -5.515625 4.296875 -5.484375 L 4.296875 -5.046875 C 4.296875 -5.003906 4.285156 -4.972656 4.265625 -4.953125 C 4.242188 -4.929688 4.210938 -4.921875 4.171875 -4.921875 L 2.6875 -4.921875 C 2.65625 -4.921875 2.640625 -4.910156 2.640625 -4.890625 L 2.640625 -0.125 C 2.640625 -0.0820312 2.628906 -0.0507812 2.609375 -0.03125 C 2.585938 -0.0078125 2.5625 0 2.53125 0 L 2 0 C 1.957031 0 1.925781 -0.0078125 1.90625 -0.03125 C 1.882812 -0.0507812 1.875 -0.0820312 1.875 -0.125 L 1.875 -4.890625 C 1.875 -4.910156 1.863281 -4.921875 1.84375 -4.921875 L 0.421875 -4.921875 C 0.390625 -4.921875 0.359375 -4.929688 0.328125 -4.953125 C 0.304688 -4.972656 0.296875 -5.003906 0.296875 -5.046875 L 0.296875 -5.484375 C 0.296875 -5.515625 0.304688 -5.539062 0.328125 -5.5625 C 0.359375 -5.582031 0.390625 -5.59375 0.421875 -5.59375 Z M 4.171875 -5.59375 "/></g></g></g><g fill="#000000" fill-opacity="1"><g transform="translate(153.659238, 236.884031)"><g><path d="M 4.09375 0 C 4.019531 0 3.972656 -0.03125 3.953125 -0.09375 L 3.671875 -0.984375 C 3.660156 -1.015625 3.644531 -1.03125 3.625 -1.03125 L 1.40625 -1.03125 C 1.382812 -1.03125 1.367188 -1.015625 1.359375 -0.984375 L 1.078125 -0.09375 C 1.054688 -0.03125 1.007812 0 0.9375 0 L 0.375 0 C 0.28125 0 0.25 -0.046875 0.28125 -0.140625 L 2.015625 -5.5 C 2.035156 -5.5625 2.078125 -5.59375 2.140625 -5.59375 L 2.875 -5.59375 C 2.945312 -5.59375 2.992188 -5.5625 3.015625 -5.5 L 4.765625 -0.140625 C 4.765625 -0.128906 4.765625 -0.113281 4.765625 -0.09375 C 4.765625 -0.03125 4.726562 0 4.65625 0 Z M 1.5625 -1.6875 C 1.5625 -1.644531 1.570312 -1.625 1.59375 -1.625 L 3.4375 -1.625 C 3.46875 -1.625 3.476562 -1.644531 3.46875 -1.6875 L 2.53125 -4.65625 C 2.53125 -4.6875 2.523438 -4.703125 2.515625 -4.703125 C 2.503906 -4.703125 2.492188 -4.6875 2.484375 -4.65625 Z M 1.5625 -1.6875 "/></g></g></g><g fill="#000000" fill-opacity="1"><g transform="translate(162.299304, 236.884031)"><g><path d="M 2.5625 0.0625 C 2.175781 0.0625 1.832031 -0.0078125 1.53125 -0.15625 C 1.238281 -0.3125 1.007812 -0.53125 0.84375 -0.8125 C 0.675781 -1.09375 0.59375 -1.414062 0.59375 -1.78125 L 0.59375 -5.484375 C 0.59375 -5.515625 0.601562 -5.539062 0.625 -5.5625 C 0.644531 -5.582031 0.675781 -5.59375 0.71875 -5.59375 L 1.25 -5.59375 C 1.28125 -5.59375 1.304688 -5.582031 1.328125 -5.5625 C 1.359375 -5.539062 1.375 -5.515625 1.375 -5.484375 L 1.375 -1.765625 C 1.375 -1.410156 1.484375 -1.125 1.703125 -0.90625 C 1.921875 -0.695312 2.207031 -0.59375 2.5625 -0.59375 C 2.925781 -0.59375 3.21875 -0.695312 3.4375 -0.90625 C 3.65625 -1.125 3.765625 -1.410156 3.765625 -1.765625 L 3.765625 -5.484375 C 3.765625 -5.515625 3.773438 -5.539062 3.796875 -5.5625 C 3.816406 -5.582031 3.84375 -5.59375 3.875 -5.59375 L 4.40625 -5.59375 C 4.445312 -5.59375 4.476562 -5.582031 4.5 -5.5625 C 4.519531 -5.539062 4.53125 -5.515625 4.53125 -5.484375 L 4.53125 -1.78125 C 4.53125 -1.414062 4.445312 -1.09375 4.28125 -0.8125 C 4.125 -0.53125 3.894531 -0.3125 3.59375 -0.15625 C 3.300781 -0.0078125 2.957031 0.0625 2.5625 0.0625 Z M 2.5625 0.0625 "/></g></g></g><g fill="#000000" fill-opacity="1"><g transform="translate(171.027363, 236.884031)"><g><path d="M 3.875 0 C 3.8125 0 3.769531 -0.03125 3.75 -0.09375 L 2.640625 -2.453125 C 2.628906 -2.472656 2.613281 -2.484375 2.59375 -2.484375 L 1.46875 -2.484375 C 1.4375 -2.484375 1.421875 -2.472656 1.421875 -2.453125 L 1.421875 -0.125 C 1.421875 -0.0820312 1.410156 -0.0507812 1.390625 -0.03125 C 1.367188 -0.0078125 1.335938 0 1.296875 0 L 0.78125 0 C 0.738281 0 0.707031 -0.0078125 0.6875 -0.03125 C 0.664062 -0.0507812 0.65625 -0.0820312 0.65625 -0.125 L 0.65625 -5.484375 C 0.65625 -5.523438 0.664062 -5.554688 0.6875 -5.578125 C 0.707031 -5.597656 0.738281 -5.609375 0.78125 -5.609375 L 2.890625 -5.609375 C 3.210938 -5.609375 3.492188 -5.539062 3.734375 -5.40625 C 3.972656 -5.269531 4.160156 -5.082031 4.296875 -4.84375 C 4.429688 -4.601562 4.5 -4.328125 4.5 -4.015625 C 4.5 -3.648438 4.398438 -3.335938 4.203125 -3.078125 C 4.003906 -2.816406 3.738281 -2.640625 3.40625 -2.546875 C 3.382812 -2.535156 3.375 -2.519531 3.375 -2.5 L 4.515625 -0.140625 L 4.53125 -0.078125 C 4.53125 -0.0234375 4.492188 0 4.421875 0 Z M 1.46875 -4.9375 C 1.4375 -4.9375 1.421875 -4.925781 1.421875 -4.90625 L 1.421875 -3.125 C 1.421875 -3.101562 1.4375 -3.09375 1.46875 -3.09375 L 2.796875 -3.09375 C 3.066406 -3.09375 3.289062 -3.175781 3.46875 -3.34375 C 3.644531 -3.507812 3.734375 -3.734375 3.734375 -4.015625 C 3.734375 -4.296875 3.644531 -4.519531 3.46875 -4.6875 C 3.300781 -4.851562 3.078125 -4.9375 2.796875 -4.9375 Z M 1.46875 -4.9375 "/></g></g></g><g fill="#000000" fill-opacity="1"><g transform="translate(179.531422, 236.884031)"><g><path d="M 4.09375 0 C 4.019531 0 3.972656 -0.03125 3.953125 -0.09375 L 3.671875 -0.984375 C 3.660156 -1.015625 3.644531 -1.03125 3.625 -1.03125 L 1.40625 -1.03125 C 1.382812 -1.03125 1.367188 -1.015625 1.359375 -0.984375 L 1.078125 -0.09375 C 1.054688 -0.03125 1.007812 0 0.9375 0 L 0.375 0 C 0.28125 0 0.25 -0.046875 0.28125 -0.140625 L 2.015625 -5.5 C 2.035156 -5.5625 2.078125 -5.59375 2.140625 -5.59375 L 2.875 -5.59375 C 2.945312 -5.59375 2.992188 -5.5625 3.015625 -5.5 L 4.765625 -0.140625 C 4.765625 -0.128906 4.765625 -0.113281 4.765625 -0.09375 C 4.765625 -0.03125 4.726562 0 4.65625 0 Z M 1.5625 -1.6875 C 1.5625 -1.644531 1.570312 -1.625 1.59375 -1.625 L 3.4375 -1.625 C 3.46875 -1.625 3.476562 -1.644531 3.46875 -1.6875 L 2.53125 -4.65625 C 2.53125 -4.6875 2.523438 -4.703125 2.515625 -4.703125 C 2.503906 -4.703125 2.492188 -4.6875 2.484375 -4.65625 Z M 1.5625 -1.6875 "/></g></g></g><g fill="#000000" fill-opacity="1"><g transform="translate(188.171488, 236.884031)"><g><path d="M 0.78125 0 C 0.738281 0 0.707031 -0.0078125 0.6875 -0.03125 C 0.664062 -0.0507812 0.65625 -0.0820312 0.65625 -0.125 L 0.65625 -5.484375 C 0.65625 -5.515625 0.664062 -5.539062 0.6875 -5.5625 C 0.707031 -5.582031 0.738281 -5.59375 0.78125 -5.59375 L 1.28125 -5.59375 C 1.351562 -5.59375 1.40625 -5.566406 1.4375 -5.515625 L 3.875 -1.5625 C 3.882812 -1.539062 3.894531 -1.53125 3.90625 -1.53125 C 3.914062 -1.539062 3.921875 -1.554688 3.921875 -1.578125 L 3.921875 -5.484375 C 3.921875 -5.515625 3.929688 -5.539062 3.953125 -5.5625 C 3.972656 -5.582031 4.003906 -5.59375 4.046875 -5.59375 L 4.578125 -5.59375 C 4.609375 -5.59375 4.632812 -5.582031 4.65625 -5.5625 C 4.6875 -5.539062 4.703125 -5.515625 4.703125 -5.484375 L 4.703125 -0.125 C 4.703125 -0.0820312 4.6875 -0.0507812 4.65625 -0.03125 C 4.632812 -0.0078125 4.609375 0 4.578125 0 L 4.0625 0 C 3.988281 0 3.9375 -0.0234375 3.90625 -0.078125 L 1.46875 -4.0625 C 1.457031 -4.082031 1.445312 -4.085938 1.4375 -4.078125 C 1.425781 -4.078125 1.421875 -4.066406 1.421875 -4.046875 L 1.421875 -0.125 C 1.421875 -0.0820312 1.410156 -0.0507812 1.390625 -0.03125 C 1.367188 -0.0078125 1.335938 0 1.296875 0 Z M 0.78125 0 "/></g></g></g><g fill="#000000" fill-opacity="1"><g transform="translate(197.11555, 236.884031)"><g><path d="M 4.171875 -5.59375 C 4.210938 -5.59375 4.242188 -5.582031 4.265625 -5.5625 C 4.285156 -5.539062 4.296875 -5.515625 4.296875 -5.484375 L 4.296875 -5.046875 C 4.296875 -5.003906 4.285156 -4.972656 4.265625 -4.953125 C 4.242188 -4.929688 4.210938 -4.921875 4.171875 -4.921875 L 2.6875 -4.921875 C 2.65625 -4.921875 2.640625 -4.910156 2.640625 -4.890625 L 2.640625 -0.125 C 2.640625 -0.0820312 2.628906 -0.0507812 2.609375 -0.03125 C 2.585938 -0.0078125 2.5625 0 2.53125 0 L 2 0 C 1.957031 0 1.925781 -0.0078125 1.90625 -0.03125 C 1.882812 -0.0507812 1.875 -0.0820312 1.875 -0.125 L 1.875 -4.890625 C 1.875 -4.910156 1.863281 -4.921875 1.84375 -4.921875 L 0.421875 -4.921875 C 0.390625 -4.921875 0.359375 -4.929688 0.328125 -4.953125 C 0.304688 -4.972656 0.296875 -5.003906 0.296875 -5.046875 L 0.296875 -5.484375 C 0.296875 -5.515625 0.304688 -5.539062 0.328125 -5.5625 C 0.359375 -5.582031 0.390625 -5.59375 0.421875 -5.59375 Z M 4.171875 -5.59375 "/></g></g></g><g fill="#000000" fill-opacity="1"><g transform="translate(205.307607, 236.884031)"><g/></g></g><g fill="#000000" fill-opacity="1"><g transform="translate(210.50764, 236.884031)"><g><path d="M 4.890625 -0.140625 C 4.921875 -0.109375 4.9375 -0.0820312 4.9375 -0.0625 C 4.9375 -0.0195312 4.898438 0 4.828125 0 L 4.234375 0 C 4.179688 0 4.132812 -0.0195312 4.09375 -0.0625 L 3.703125 -0.5 C 3.691406 -0.519531 3.671875 -0.523438 3.640625 -0.515625 C 3.390625 -0.316406 3.132812 -0.171875 2.875 -0.078125 C 2.613281 0.015625 2.332031 0.0625 2.03125 0.0625 C 1.550781 0.0625 1.160156 -0.046875 0.859375 -0.265625 C 0.554688 -0.492188 0.40625 -0.828125 0.40625 -1.265625 C 0.40625 -1.640625 0.503906 -1.953125 0.703125 -2.203125 C 0.910156 -2.460938 1.191406 -2.703125 1.546875 -2.921875 C 1.566406 -2.941406 1.566406 -2.960938 1.546875 -2.984375 C 1.253906 -3.335938 1.054688 -3.601562 0.953125 -3.78125 C 0.859375 -3.96875 0.8125 -4.148438 0.8125 -4.328125 C 0.8125 -4.722656 0.941406 -5.039062 1.203125 -5.28125 C 1.472656 -5.53125 1.828125 -5.65625 2.265625 -5.65625 C 2.703125 -5.65625 3.0625 -5.535156 3.34375 -5.296875 C 3.625 -5.054688 3.765625 -4.742188 3.765625 -4.359375 C 3.765625 -4.023438 3.664062 -3.742188 3.46875 -3.515625 C 3.28125 -3.285156 3.003906 -3.0625 2.640625 -2.84375 C 2.617188 -2.820312 2.617188 -2.800781 2.640625 -2.78125 L 3.65625 -1.59375 L 3.703125 -1.5625 C 3.710938 -1.539062 3.726562 -1.539062 3.75 -1.5625 C 3.875 -1.707031 4.035156 -1.921875 4.234375 -2.203125 C 4.265625 -2.242188 4.300781 -2.265625 4.34375 -2.265625 C 4.363281 -2.265625 4.382812 -2.253906 4.40625 -2.234375 L 4.796875 -2.03125 C 4.828125 -2 4.84375 -1.960938 4.84375 -1.921875 C 4.84375 -1.898438 4.835938 -1.878906 4.828125 -1.859375 C 4.585938 -1.515625 4.375 -1.238281 4.1875 -1.03125 L 4.1875 -1.015625 C 4.1875 -0.984375 4.195312 -0.957031 4.21875 -0.9375 Z M 2.28125 -4.953125 C 2.070312 -4.953125 1.898438 -4.894531 1.765625 -4.78125 C 1.640625 -4.664062 1.578125 -4.515625 1.578125 -4.328125 C 1.578125 -4.222656 1.613281 -4.109375 1.6875 -3.984375 C 1.757812 -3.859375 1.914062 -3.648438 2.15625 -3.359375 C 2.164062 -3.335938 2.179688 -3.335938 2.203125 -3.359375 C 2.460938 -3.523438 2.660156 -3.679688 2.796875 -3.828125 C 2.929688 -3.984375 3 -4.15625 3 -4.34375 C 3 -4.53125 2.929688 -4.675781 2.796875 -4.78125 C 2.660156 -4.894531 2.488281 -4.953125 2.28125 -4.953125 Z M 2.046875 -0.59375 C 2.421875 -0.59375 2.800781 -0.738281 3.1875 -1.03125 C 3.207031 -1.050781 3.207031 -1.070312 3.1875 -1.09375 L 2.96875 -1.359375 C 2.84375 -1.503906 2.734375 -1.628906 2.640625 -1.734375 C 2.453125 -1.941406 2.304688 -2.101562 2.203125 -2.21875 L 2.046875 -2.40625 C 2.023438 -2.425781 2.003906 -2.429688 1.984375 -2.421875 C 1.710938 -2.234375 1.507812 -2.050781 1.375 -1.875 C 1.238281 -1.707031 1.171875 -1.515625 1.171875 -1.296875 C 1.171875 -1.078125 1.25 -0.90625 1.40625 -0.78125 C 1.5625 -0.65625 1.773438 -0.59375 2.046875 -0.59375 Z M 2.046875 -0.59375 "/></g></g></g><g fill="#000000" fill-opacity="1"><g transform="translate(219.523699, 236.884031)"><g/></g></g><g fill="#000000" fill-opacity="1"><g transform="translate(224.723726, 236.884031)"><g><path d="M 2.453125 0.078125 C 2.066406 0.078125 1.722656 0 1.421875 -0.15625 C 1.128906 -0.3125 0.898438 -0.523438 0.734375 -0.796875 C 0.578125 -1.078125 0.5 -1.398438 0.5 -1.765625 L 0.5 -3.84375 C 0.5 -4.207031 0.578125 -4.523438 0.734375 -4.796875 C 0.898438 -5.066406 1.128906 -5.273438 1.421875 -5.421875 C 1.722656 -5.578125 2.066406 -5.65625 2.453125 -5.65625 C 2.835938 -5.65625 3.175781 -5.582031 3.46875 -5.4375 C 3.757812 -5.289062 3.988281 -5.082031 4.15625 -4.8125 C 4.320312 -4.550781 4.40625 -4.242188 4.40625 -3.890625 C 4.40625 -3.835938 4.363281 -3.804688 4.28125 -3.796875 L 3.75 -3.765625 L 3.71875 -3.765625 C 3.695312 -3.765625 3.675781 -3.769531 3.65625 -3.78125 C 3.632812 -3.789062 3.625 -3.800781 3.625 -3.8125 L 3.625 -3.859375 C 3.625 -4.203125 3.515625 -4.476562 3.296875 -4.6875 C 3.085938 -4.894531 2.804688 -5 2.453125 -5 C 2.097656 -5 1.8125 -4.894531 1.59375 -4.6875 C 1.375 -4.476562 1.265625 -4.203125 1.265625 -3.859375 L 1.265625 -1.734375 C 1.265625 -1.390625 1.375 -1.113281 1.59375 -0.90625 C 1.8125 -0.695312 2.097656 -0.59375 2.453125 -0.59375 C 2.804688 -0.59375 3.085938 -0.695312 3.296875 -0.90625 C 3.515625 -1.113281 3.625 -1.390625 3.625 -1.734375 C 3.625 -1.765625 3.632812 -1.785156 3.65625 -1.796875 C 3.6875 -1.816406 3.71875 -1.828125 3.75 -1.828125 L 4.28125 -1.796875 C 4.363281 -1.785156 4.40625 -1.769531 4.40625 -1.75 L 4.40625 -1.71875 C 4.40625 -1.363281 4.320312 -1.050781 4.15625 -0.78125 C 3.988281 -0.507812 3.757812 -0.296875 3.46875 -0.140625 C 3.175781 0.00390625 2.835938 0.078125 2.453125 0.078125 Z M 2.453125 0.078125 "/></g></g></g><g fill="#000000" fill-opacity="1"><g transform="translate(233.179786, 236.884031)"><g><path d="M 4.09375 0 C 4.019531 0 3.972656 -0.03125 3.953125 -0.09375 L 3.671875 -0.984375 C 3.660156 -1.015625 3.644531 -1.03125 3.625 -1.03125 L 1.40625 -1.03125 C 1.382812 -1.03125 1.367188 -1.015625 1.359375 -0.984375 L 1.078125 -0.09375 C 1.054688 -0.03125 1.007812 0 0.9375 0 L 0.375 0 C 0.28125 0 0.25 -0.046875 0.28125 -0.140625 L 2.015625 -5.5 C 2.035156 -5.5625 2.078125 -5.59375 2.140625 -5.59375 L 2.875 -5.59375 C 2.945312 -5.59375 2.992188 -5.5625 3.015625 -5.5 L 4.765625 -0.140625 C 4.765625 -0.128906 4.765625 -0.113281 4.765625 -0.09375 C 4.765625 -0.03125 4.726562 0 4.65625 0 Z M 1.5625 -1.6875 C 1.5625 -1.644531 1.570312 -1.625 1.59375 -1.625 L 3.4375 -1.625 C 3.46875 -1.625 3.476562 -1.644531 3.46875 -1.6875 L 2.53125 -4.65625 C 2.53125 -4.6875 2.523438 -4.703125 2.515625 -4.703125 C 2.503906 -4.703125 2.492188 -4.6875 2.484375 -4.65625 Z M 1.5625 -1.6875 "/></g></g></g><g fill="#000000" fill-opacity="1"><g transform="translate(241.819847, 236.884031)"><g><path d="M 4.375 -5.0625 C 4.375 -5.019531 4.359375 -4.988281 4.328125 -4.96875 C 4.304688 -4.945312 4.28125 -4.9375 4.25 -4.9375 L 1.46875 -4.9375 C 1.4375 -4.9375 1.421875 -4.921875 1.421875 -4.890625 L 1.421875 -3.1875 C 1.421875 -3.164062 1.4375 -3.15625 1.46875 -3.15625 L 3.359375 -3.15625 C 3.398438 -3.15625 3.429688 -3.144531 3.453125 -3.125 C 3.472656 -3.101562 3.484375 -3.070312 3.484375 -3.03125 L 3.484375 -2.609375 C 3.484375 -2.566406 3.472656 -2.535156 3.453125 -2.515625 C 3.429688 -2.492188 3.398438 -2.484375 3.359375 -2.484375 L 1.46875 -2.484375 C 1.4375 -2.484375 1.421875 -2.472656 1.421875 -2.453125 L 1.421875 -0.125 C 1.421875 -0.0820312 1.410156 -0.0507812 1.390625 -0.03125 C 1.367188 -0.0078125 1.335938 0 1.296875 0 L 0.78125 0 C 0.738281 0 0.707031 -0.0078125 0.6875 -0.03125 C 0.664062 -0.0507812 0.65625 -0.0820312 0.65625 -0.125 L 0.65625 -5.484375 C 0.65625 -5.515625 0.664062 -5.539062 0.6875 -5.5625 C 0.707031 -5.582031 0.738281 -5.59375 0.78125 -5.59375 L 4.25 -5.59375 C 4.28125 -5.59375 4.304688 -5.582031 4.328125 -5.5625 C 4.359375 -5.539062 4.375 -5.515625 4.375 -5.484375 Z M 4.375 -5.0625 "/></g></g></g><g fill="#000000" fill-opacity="1"><g transform="translate(249.939897, 236.884031)"><g><path d="M 4.375 -5.0625 C 4.375 -5.019531 4.363281 -4.988281 4.34375 -4.96875 C 4.320312 -4.945312 4.289062 -4.9375 4.25 -4.9375 L 1.46875 -4.9375 C 1.4375 -4.9375 1.421875 -4.921875 1.421875 -4.890625 L 1.421875 -3.1875 C 1.421875 -3.164062 1.4375 -3.15625 1.46875 -3.15625 L 3.375 -3.15625 C 3.40625 -3.15625 3.429688 -3.144531 3.453125 -3.125 C 3.472656 -3.101562 3.484375 -3.070312 3.484375 -3.03125 L 3.484375 -2.609375 C 3.484375 -2.566406 3.472656 -2.535156 3.453125 -2.515625 C 3.429688 -2.492188 3.40625 -2.484375 3.375 -2.484375 L 1.46875 -2.484375 C 1.4375 -2.484375 1.421875 -2.472656 1.421875 -2.453125 L 1.421875 -0.703125 C 1.421875 -0.671875 1.4375 -0.65625 1.46875 -0.65625 L 4.25 -0.65625 C 4.289062 -0.65625 4.320312 -0.644531 4.34375 -0.625 C 4.363281 -0.601562 4.375 -0.578125 4.375 -0.546875 L 4.375 -0.125 C 4.375 -0.0820312 4.363281 -0.0507812 4.34375 -0.03125 C 4.320312 -0.0078125 4.289062 0 4.25 0 L 0.78125 0 C 0.738281 0 0.707031 -0.0078125 0.6875 -0.03125 C 0.664062 -0.0507812 0.65625 -0.0820312 0.65625 -0.125 L 0.65625 -5.484375 C 0.65625 -5.515625 0.664062 -5.539062 0.6875 -5.5625 C 0.707031 -5.582031 0.738281 -5.59375 0.78125 -5.59375 L 4.25 -5.59375 C 4.289062 -5.59375 4.320312 -5.582031 4.34375 -5.5625 C 4.363281 -5.539062 4.375 -5.515625 4.375 -5.484375 Z M 4.375 -5.0625 "/></g></g></g></svg>