<svg xmlns="http://www.w3.org/2000/svg" xmlns:xlink="http://www.w3.org/1999/xlink" width="500" zoomAndPan="magnify" viewBox="0 0 375 149.999998" height="200" preserveAspectRatio="xMidYMid meet" version="1.0"><defs><g/><clipPath id="id1"><path d="M 278.734375 0 L 322.234375 0 L 322.234375 42.5 L 278.734375 42.5 Z M 278.734375 0 " clip-rule="nonzero"/></clipPath><clipPath id="id2"><path d="M 37.855469 81.269531 L 81.355469 81.269531 L 81.355469 124.769531 L 37.855469 124.769531 Z M 37.855469 81.269531 " clip-rule="nonzero"/></clipPath></defs><path stroke-linecap="butt" transform="matrix(2.256752, 0, 0, 2.541176, 67.322452, 103.219522)" fill="none" stroke-linejoin="miter" d="M 0.000782874 -0.000303945 L 46.860161 -0.000303945 " stroke="#ffffff" stroke-width="1" stroke-opacity="1" stroke-miterlimit="4"/><path stroke-linecap="butt" transform="matrix(2.256752, 0, 0, 2.541176, 187.401717, 20.950343)" fill="none" stroke-linejoin="miter" d="M 0.000277725 -0.000442263 L 46.859656 -0.000442263 " stroke="#ffffff" stroke-width="1" stroke-opacity="1" stroke-miterlimit="4"/><g clip-path="url(#id1)"><path fill="#ffffff" d="M 300.484375 -1 C 298.363281 16.914062 296.644531 18.632812 278.734375 20.75 C 278.769531 20.753906 278.808594 20.761719 278.84375 20.765625 C 296.652344 22.878906 298.367188 24.625 300.484375 42.5 C 302.601562 24.589844 304.320312 22.871094 322.234375 20.75 C 304.320312 18.632812 302.601562 16.914062 300.484375 -1 Z M 300.484375 -1 " fill-opacity="1" fill-rule="nonzero"/></g><g clip-path="url(#id2)"><path fill="#ffffff" d="M 59.605469 81.269531 C 57.488281 99.183594 55.769531 100.898438 37.855469 103.019531 C 37.894531 103.023438 37.929688 103.027344 37.96875 103.035156 C 55.777344 105.148438 57.492188 106.894531 59.605469 124.769531 C 61.726562 106.859375 63.445312 105.140625 81.355469 103.019531 C 63.445312 100.898438 61.726562 99.183594 59.605469 81.269531 Z M 59.605469 81.269531 " fill-opacity="1" fill-rule="nonzero"/></g><g fill="#ffffff" fill-opacity="1"><g transform="translate(110.96484, 86.32039)"><g><path d="M 41.199219 0.515625 C 42.667969 0.515625 44.582031 0.367188 45.683594 0 L 45.683594 -0.882812 C 45.316406 -0.808594 44.949219 -0.808594 44.507812 -0.808594 C 42.007812 -0.808594 40.535156 -3.238281 37.003906 -12.066406 C 33.472656 -21.113281 32.074219 -25.601562 23.027344 -26.777344 C 32.589844 -27.882812 37.59375 -33.105469 37.59375 -40.019531 C 37.59375 -46.566406 33.179688 -51.496094 18.246094 -51.496094 L 3.75 -51.496094 L 3.75 -50.539062 C 6.03125 -49.878906 6.695312 -48.1875 6.695312 -42.152344 L 6.695312 -9.34375 C 6.695312 -3.308594 6.03125 -1.617188 3.75 -0.957031 L 3.75 0 L 15.667969 0 L 15.667969 -0.957031 C 13.390625 -1.617188 12.726562 -3.308594 12.726562 -9.34375 L 12.726562 -26.558594 L 17.433594 -26.558594 C 26.261719 -26.558594 26.851562 -21.40625 31.117188 -11.253906 C 34.355469 -3.605469 35.53125 0.515625 41.199219 0.515625 Z M 12.726562 -27.660156 L 12.726562 -50.246094 C 13.902344 -50.320312 15.082031 -50.394531 16.183594 -50.394531 C 27.074219 -50.394531 31.339844 -44.875 31.339844 -38.328125 C 31.339844 -32.074219 27.367188 -27.660156 18.90625 -27.660156 Z M 12.726562 -27.660156 "/></g></g></g><g fill="#ffffff" fill-opacity="1"><g transform="translate(155.982645, 86.32039)"><g><path d="M 46.347656 0.515625 C 52.527344 0.515625 60.324219 -7.355469 60.324219 -15.667969 C 60.324219 -20.304688 57.601562 -24.496094 53.484375 -26.410156 L 62.015625 -26.410156 L 62.386719 -27.441406 L 35.828125 -27.441406 L 35.460938 -26.410156 L 51.570312 -26.410156 C 53.851562 -25.601562 55.617188 -18.757812 55.617188 -14.34375 C 55.617188 -8.605469 54.882812 -2.796875 51.421875 -2.796875 C 46.9375 -2.796875 36.34375 -12.726562 27.734375 -22.730469 C 22.585938 -28.765625 16.40625 -36.5625 16.40625 -42.667969 C 16.40625 -46.199219 18.90625 -50.613281 25.011719 -50.613281 C 29.207031 -50.613281 34.0625 -49.214844 37.59375 -40.976562 L 38.253906 -41.125 L 37.445312 -49.65625 C 34.207031 -51.496094 30.089844 -52.011719 27.21875 -52.011719 C 15.742188 -52.011719 11.476562 -45.097656 11.476562 -39.652344 C 11.476562 -36.121094 12.949219 -32.664062 15.226562 -28.910156 C 6.328125 -25.820312 2.132812 -20.082031 2.132812 -13.535156 C 2.132812 -5.886719 7.945312 0.734375 16.550781 0.734375 C 22.511719 0.734375 27.734375 -2.941406 31.265625 -9.636719 C 37.003906 -3.972656 42.890625 0.515625 46.347656 0.515625 Z M 7.28125 -16.183594 C 7.28125 -20.746094 9.195312 -25.601562 15.742188 -28.175781 C 17.730469 -25.085938 20.304688 -21.921875 23.171875 -18.539062 C 25.453125 -15.816406 27.957031 -12.949219 30.53125 -10.371094 C 27.808594 -5.738281 23.320312 -3.238281 19.496094 -3.238281 C 11.769531 -3.238281 7.28125 -9.785156 7.28125 -16.183594 Z M 7.28125 -16.183594 "/></g></g></g><g fill="#ffffff" fill-opacity="1"><g transform="translate(219.022283, 86.32039)"><g><path d="M 41.199219 0.515625 C 42.667969 0.515625 44.582031 0.367188 45.683594 0 L 45.683594 -0.882812 C 45.316406 -0.808594 44.949219 -0.808594 44.507812 -0.808594 C 42.007812 -0.808594 40.535156 -3.238281 37.003906 -12.066406 C 33.472656 -21.113281 32.074219 -25.601562 23.027344 -26.777344 C 32.589844 -27.882812 37.59375 -33.105469 37.59375 -40.019531 C 37.59375 -46.566406 33.179688 -51.496094 18.246094 -51.496094 L 3.75 -51.496094 L 3.75 -50.539062 C 6.03125 -49.878906 6.695312 -48.1875 6.695312 -42.152344 L 6.695312 -9.34375 C 6.695312 -3.308594 6.03125 -1.617188 3.75 -0.957031 L 3.75 0 L 15.667969 0 L 15.667969 -0.957031 C 13.390625 -1.617188 12.726562 -3.308594 12.726562 -9.34375 L 12.726562 -26.558594 L 17.433594 -26.558594 C 26.261719 -26.558594 26.851562 -21.40625 31.117188 -11.253906 C 34.355469 -3.605469 35.53125 0.515625 41.199219 0.515625 Z M 12.726562 -27.660156 L 12.726562 -50.246094 C 13.902344 -50.320312 15.082031 -50.394531 16.183594 -50.394531 C 27.074219 -50.394531 31.339844 -44.875 31.339844 -38.328125 C 31.339844 -32.074219 27.367188 -27.660156 18.90625 -27.660156 Z M 12.726562 -27.660156 "/></g></g></g><g fill="#ffffff" fill-opacity="1"><g transform="translate(20.435814, 143.387893)"><g><path d="M 9.640625 0 C 9.484375 0 9.367188 -0.0703125 9.296875 -0.21875 L 6.5625 -6.109375 C 6.53125 -6.160156 6.488281 -6.1875 6.4375 -6.1875 L 3.640625 -6.1875 C 3.566406 -6.1875 3.53125 -6.148438 3.53125 -6.078125 L 3.53125 -0.296875 C 3.53125 -0.203125 3.503906 -0.128906 3.453125 -0.078125 C 3.398438 -0.0234375 3.328125 0 3.234375 0 L 1.921875 0 C 1.828125 0 1.753906 -0.0234375 1.703125 -0.078125 C 1.648438 -0.128906 1.625 -0.203125 1.625 -0.296875 L 1.625 -13.640625 C 1.625 -13.722656 1.648438 -13.789062 1.703125 -13.84375 C 1.753906 -13.90625 1.828125 -13.9375 1.921875 -13.9375 L 7.171875 -13.9375 C 7.972656 -13.9375 8.671875 -13.769531 9.265625 -13.4375 C 9.867188 -13.101562 10.335938 -12.640625 10.671875 -12.046875 C 11.003906 -11.453125 11.171875 -10.765625 11.171875 -9.984375 C 11.171875 -9.066406 10.925781 -8.285156 10.4375 -7.640625 C 9.945312 -6.992188 9.285156 -6.5625 8.453125 -6.34375 C 8.398438 -6.3125 8.378906 -6.269531 8.390625 -6.21875 L 11.203125 -0.359375 L 11.25 -0.203125 C 11.25 -0.0664062 11.160156 0 10.984375 0 Z M 3.640625 -12.28125 C 3.566406 -12.28125 3.53125 -12.25 3.53125 -12.1875 L 3.53125 -7.765625 C 3.53125 -7.703125 3.566406 -7.671875 3.640625 -7.671875 L 6.9375 -7.671875 C 7.625 -7.671875 8.179688 -7.878906 8.609375 -8.296875 C 9.046875 -8.722656 9.265625 -9.273438 9.265625 -9.953125 C 9.265625 -10.660156 9.050781 -11.222656 8.625 -11.640625 C 8.195312 -12.066406 7.632812 -12.28125 6.9375 -12.28125 Z M 3.640625 -12.28125 "/></g></g></g><g fill="#ffffff" fill-opacity="1"><g transform="translate(41.568602, 143.387893)"><g><path d="M 10.875 -12.5625 C 10.875 -12.46875 10.847656 -12.394531 10.796875 -12.34375 C 10.742188 -12.289062 10.671875 -12.265625 10.578125 -12.265625 L 3.640625 -12.265625 C 3.566406 -12.265625 3.53125 -12.226562 3.53125 -12.15625 L 3.53125 -7.9375 C 3.53125 -7.863281 3.566406 -7.828125 3.640625 -7.828125 L 8.375 -7.828125 C 8.457031 -7.828125 8.523438 -7.800781 8.578125 -7.75 C 8.640625 -7.695312 8.671875 -7.625 8.671875 -7.53125 L 8.671875 -6.484375 C 8.671875 -6.390625 8.640625 -6.316406 8.578125 -6.265625 C 8.523438 -6.210938 8.457031 -6.1875 8.375 -6.1875 L 3.640625 -6.1875 C 3.566406 -6.1875 3.53125 -6.148438 3.53125 -6.078125 L 3.53125 -1.75 C 3.53125 -1.6875 3.566406 -1.65625 3.640625 -1.65625 L 10.578125 -1.65625 C 10.671875 -1.65625 10.742188 -1.625 10.796875 -1.5625 C 10.847656 -1.507812 10.875 -1.4375 10.875 -1.34375 L 10.875 -0.296875 C 10.875 -0.203125 10.847656 -0.128906 10.796875 -0.078125 C 10.742188 -0.0234375 10.671875 0 10.578125 0 L 1.921875 0 C 1.828125 0 1.753906 -0.0234375 1.703125 -0.078125 C 1.648438 -0.128906 1.625 -0.203125 1.625 -0.296875 L 1.625 -13.609375 C 1.625 -13.703125 1.648438 -13.773438 1.703125 -13.828125 C 1.753906 -13.878906 1.828125 -13.90625 1.921875 -13.90625 L 10.578125 -13.90625 C 10.671875 -13.90625 10.742188 -13.878906 10.796875 -13.828125 C 10.847656 -13.773438 10.875 -13.703125 10.875 -13.609375 Z M 10.875 -12.5625 "/></g></g></g><g fill="#ffffff" fill-opacity="1"><g transform="translate(62.403259, 143.387893)"><g><path d="M 5.921875 0.15625 C 4.929688 0.15625 4.0625 0 3.3125 -0.3125 C 2.570312 -0.632812 2 -1.085938 1.59375 -1.671875 C 1.195312 -2.253906 1 -2.9375 1 -3.71875 L 1 -4.1875 C 1 -4.28125 1.023438 -4.351562 1.078125 -4.40625 C 1.128906 -4.457031 1.203125 -4.484375 1.296875 -4.484375 L 2.5625 -4.484375 C 2.65625 -4.484375 2.726562 -4.457031 2.78125 -4.40625 C 2.832031 -4.351562 2.859375 -4.28125 2.859375 -4.1875 L 2.859375 -3.8125 C 2.859375 -3.132812 3.148438 -2.578125 3.734375 -2.140625 C 4.316406 -1.703125 5.09375 -1.484375 6.0625 -1.484375 C 6.976562 -1.484375 7.664062 -1.675781 8.125 -2.0625 C 8.59375 -2.445312 8.828125 -2.953125 8.828125 -3.578125 C 8.828125 -3.984375 8.707031 -4.332031 8.46875 -4.625 C 8.226562 -4.914062 7.878906 -5.179688 7.421875 -5.421875 C 6.960938 -5.671875 6.296875 -5.96875 5.421875 -6.3125 C 4.453125 -6.6875 3.6875 -7.023438 3.125 -7.328125 C 2.5625 -7.640625 2.09375 -8.039062 1.71875 -8.53125 C 1.351562 -9.03125 1.171875 -9.660156 1.171875 -10.421875 C 1.171875 -11.554688 1.578125 -12.445312 2.390625 -13.09375 C 3.210938 -13.75 4.316406 -14.078125 5.703125 -14.078125 C 6.679688 -14.078125 7.539062 -13.910156 8.28125 -13.578125 C 9.03125 -13.242188 9.601562 -12.773438 10 -12.171875 C 10.40625 -11.578125 10.609375 -10.890625 10.609375 -10.109375 L 10.609375 -9.8125 C 10.609375 -9.71875 10.582031 -9.644531 10.53125 -9.59375 C 10.476562 -9.539062 10.40625 -9.515625 10.3125 -9.515625 L 9.015625 -9.515625 C 8.929688 -9.515625 8.859375 -9.535156 8.796875 -9.578125 C 8.742188 -9.628906 8.71875 -9.695312 8.71875 -9.78125 L 8.71875 -10.015625 C 8.71875 -10.703125 8.441406 -11.273438 7.890625 -11.734375 C 7.347656 -12.191406 6.59375 -12.421875 5.625 -12.421875 C 4.800781 -12.421875 4.164062 -12.25 3.71875 -11.90625 C 3.269531 -11.570312 3.046875 -11.085938 3.046875 -10.453125 C 3.046875 -10.015625 3.15625 -9.65625 3.375 -9.375 C 3.601562 -9.101562 3.9375 -8.859375 4.375 -8.640625 C 4.820312 -8.421875 5.503906 -8.140625 6.421875 -7.796875 C 7.359375 -7.421875 8.117188 -7.078125 8.703125 -6.765625 C 9.285156 -6.453125 9.769531 -6.039062 10.15625 -5.53125 C 10.539062 -5.019531 10.734375 -4.390625 10.734375 -3.640625 C 10.734375 -2.878906 10.539062 -2.210938 10.15625 -1.640625 C 9.769531 -1.078125 9.210938 -0.632812 8.484375 -0.3125 C 7.753906 0 6.898438 0.15625 5.921875 0.15625 Z M 5.921875 0.15625 "/></g></g></g><g fill="#ffffff" fill-opacity="1"><g transform="translate(83.03917, 143.387893)"><g><path d="M 10.375 -13.90625 C 10.46875 -13.90625 10.539062 -13.878906 10.59375 -13.828125 C 10.644531 -13.773438 10.671875 -13.703125 10.671875 -13.609375 L 10.671875 -12.546875 C 10.671875 -12.453125 10.644531 -12.378906 10.59375 -12.328125 C 10.539062 -12.273438 10.46875 -12.25 10.375 -12.25 L 6.671875 -12.25 C 6.609375 -12.25 6.578125 -12.210938 6.578125 -12.140625 L 6.578125 -0.296875 C 6.578125 -0.203125 6.550781 -0.128906 6.5 -0.078125 C 6.445312 -0.0234375 6.375 0 6.28125 0 L 4.96875 0 C 4.875 0 4.800781 -0.0234375 4.75 -0.078125 C 4.695312 -0.128906 4.671875 -0.203125 4.671875 -0.296875 L 4.671875 -12.140625 C 4.671875 -12.210938 4.640625 -12.25 4.578125 -12.25 L 1.046875 -12.25 C 0.960938 -12.25 0.890625 -12.273438 0.828125 -12.328125 C 0.773438 -12.378906 0.75 -12.453125 0.75 -12.546875 L 0.75 -13.609375 C 0.75 -13.703125 0.773438 -13.773438 0.828125 -13.828125 C 0.890625 -13.878906 0.960938 -13.90625 1.046875 -13.90625 Z M 10.375 -13.90625 "/></g></g></g><g fill="#ffffff" fill-opacity="1"><g transform="translate(103.396835, 143.387893)"><g><path d="M 10.15625 0 C 9.976562 0 9.863281 -0.078125 9.8125 -0.234375 L 9.125 -2.46875 C 9.09375 -2.519531 9.054688 -2.546875 9.015625 -2.546875 L 3.484375 -2.546875 C 3.441406 -2.546875 3.40625 -2.519531 3.375 -2.46875 L 2.6875 -0.234375 C 2.632812 -0.078125 2.519531 0 2.34375 0 L 0.9375 0 C 0.707031 0 0.628906 -0.113281 0.703125 -0.34375 L 4.984375 -13.671875 C 5.035156 -13.828125 5.148438 -13.90625 5.328125 -13.90625 L 7.15625 -13.90625 C 7.320312 -13.90625 7.4375 -13.828125 7.5 -13.671875 L 11.828125 -0.34375 C 11.835938 -0.3125 11.84375 -0.269531 11.84375 -0.21875 C 11.84375 -0.0703125 11.757812 0 11.59375 0 Z M 3.890625 -4.171875 C 3.878906 -4.085938 3.90625 -4.046875 3.96875 -4.046875 L 8.53125 -4.046875 C 8.601562 -4.046875 8.628906 -4.085938 8.609375 -4.171875 L 6.296875 -11.59375 C 6.285156 -11.644531 6.265625 -11.671875 6.234375 -11.671875 C 6.210938 -11.671875 6.195312 -11.644531 6.1875 -11.59375 Z M 3.890625 -4.171875 "/></g></g></g><g fill="#ffffff" fill-opacity="1"><g transform="translate(124.867494, 143.387893)"><g><path d="M 6.375 0.15625 C 5.40625 0.15625 4.550781 -0.03125 3.8125 -0.40625 C 3.082031 -0.78125 2.507812 -1.316406 2.09375 -2.015625 C 1.6875 -2.710938 1.484375 -3.507812 1.484375 -4.40625 L 1.484375 -13.609375 C 1.484375 -13.703125 1.507812 -13.773438 1.5625 -13.828125 C 1.625 -13.878906 1.695312 -13.90625 1.78125 -13.90625 L 3.09375 -13.90625 C 3.1875 -13.90625 3.257812 -13.878906 3.3125 -13.828125 C 3.375 -13.773438 3.40625 -13.703125 3.40625 -13.609375 L 3.40625 -4.375 C 3.40625 -3.507812 3.675781 -2.8125 4.21875 -2.28125 C 4.769531 -1.75 5.488281 -1.484375 6.375 -1.484375 C 7.269531 -1.484375 7.988281 -1.75 8.53125 -2.28125 C 9.070312 -2.8125 9.34375 -3.507812 9.34375 -4.375 L 9.34375 -13.609375 C 9.34375 -13.703125 9.367188 -13.773438 9.421875 -13.828125 C 9.472656 -13.878906 9.546875 -13.90625 9.640625 -13.90625 L 10.953125 -13.90625 C 11.046875 -13.90625 11.117188 -13.878906 11.171875 -13.828125 C 11.222656 -13.773438 11.25 -13.703125 11.25 -13.609375 L 11.25 -4.40625 C 11.25 -3.507812 11.046875 -2.710938 10.640625 -2.015625 C 10.234375 -1.316406 9.660156 -0.78125 8.921875 -0.40625 C 8.191406 -0.03125 7.34375 0.15625 6.375 0.15625 Z M 6.375 0.15625 "/></g></g></g><g fill="#ffffff" fill-opacity="1"><g transform="translate(146.556782, 143.387893)"><g><path d="M 9.640625 0 C 9.484375 0 9.367188 -0.0703125 9.296875 -0.21875 L 6.5625 -6.109375 C 6.53125 -6.160156 6.488281 -6.1875 6.4375 -6.1875 L 3.640625 -6.1875 C 3.566406 -6.1875 3.53125 -6.148438 3.53125 -6.078125 L 3.53125 -0.296875 C 3.53125 -0.203125 3.503906 -0.128906 3.453125 -0.078125 C 3.398438 -0.0234375 3.328125 0 3.234375 0 L 1.921875 0 C 1.828125 0 1.753906 -0.0234375 1.703125 -0.078125 C 1.648438 -0.128906 1.625 -0.203125 1.625 -0.296875 L 1.625 -13.640625 C 1.625 -13.722656 1.648438 -13.789062 1.703125 -13.84375 C 1.753906 -13.90625 1.828125 -13.9375 1.921875 -13.9375 L 7.171875 -13.9375 C 7.972656 -13.9375 8.671875 -13.769531 9.265625 -13.4375 C 9.867188 -13.101562 10.335938 -12.640625 10.671875 -12.046875 C 11.003906 -11.453125 11.171875 -10.765625 11.171875 -9.984375 C 11.171875 -9.066406 10.925781 -8.285156 10.4375 -7.640625 C 9.945312 -6.992188 9.285156 -6.5625 8.453125 -6.34375 C 8.398438 -6.3125 8.378906 -6.269531 8.390625 -6.21875 L 11.203125 -0.359375 L 11.25 -0.203125 C 11.25 -0.0664062 11.160156 0 10.984375 0 Z M 3.640625 -12.28125 C 3.566406 -12.28125 3.53125 -12.25 3.53125 -12.1875 L 3.53125 -7.765625 C 3.53125 -7.703125 3.566406 -7.671875 3.640625 -7.671875 L 6.9375 -7.671875 C 7.625 -7.671875 8.179688 -7.878906 8.609375 -8.296875 C 9.046875 -8.722656 9.265625 -9.273438 9.265625 -9.953125 C 9.265625 -10.660156 9.050781 -11.222656 8.625 -11.640625 C 8.195312 -12.066406 7.632812 -12.28125 6.9375 -12.28125 Z M 3.640625 -12.28125 "/></g></g></g><g fill="#ffffff" fill-opacity="1"><g transform="translate(167.689567, 143.387893)"><g><path d="M 10.15625 0 C 9.976562 0 9.863281 -0.078125 9.8125 -0.234375 L 9.125 -2.46875 C 9.09375 -2.519531 9.054688 -2.546875 9.015625 -2.546875 L 3.484375 -2.546875 C 3.441406 -2.546875 3.40625 -2.519531 3.375 -2.46875 L 2.6875 -0.234375 C 2.632812 -0.078125 2.519531 0 2.34375 0 L 0.9375 0 C 0.707031 0 0.628906 -0.113281 0.703125 -0.34375 L 4.984375 -13.671875 C 5.035156 -13.828125 5.148438 -13.90625 5.328125 -13.90625 L 7.15625 -13.90625 C 7.320312 -13.90625 7.4375 -13.828125 7.5 -13.671875 L 11.828125 -0.34375 C 11.835938 -0.3125 11.84375 -0.269531 11.84375 -0.21875 C 11.84375 -0.0703125 11.757812 0 11.59375 0 Z M 3.890625 -4.171875 C 3.878906 -4.085938 3.90625 -4.046875 3.96875 -4.046875 L 8.53125 -4.046875 C 8.601562 -4.046875 8.628906 -4.085938 8.609375 -4.171875 L 6.296875 -11.59375 C 6.285156 -11.644531 6.265625 -11.671875 6.234375 -11.671875 C 6.210938 -11.671875 6.195312 -11.644531 6.1875 -11.59375 Z M 3.890625 -4.171875 "/></g></g></g><g fill="#ffffff" fill-opacity="1"><g transform="translate(189.160227, 143.387893)"><g><path d="M 1.921875 0 C 1.828125 0 1.753906 -0.0234375 1.703125 -0.078125 C 1.648438 -0.128906 1.625 -0.203125 1.625 -0.296875 L 1.625 -13.609375 C 1.625 -13.703125 1.648438 -13.773438 1.703125 -13.828125 C 1.753906 -13.878906 1.828125 -13.90625 1.921875 -13.90625 L 3.203125 -13.90625 C 3.359375 -13.90625 3.476562 -13.84375 3.5625 -13.71875 L 9.640625 -3.875 C 9.660156 -3.832031 9.6875 -3.8125 9.71875 -3.8125 C 9.75 -3.820312 9.765625 -3.859375 9.765625 -3.921875 L 9.765625 -13.609375 C 9.765625 -13.703125 9.789062 -13.773438 9.84375 -13.828125 C 9.894531 -13.878906 9.96875 -13.90625 10.0625 -13.90625 L 11.375 -13.90625 C 11.457031 -13.90625 11.523438 -13.878906 11.578125 -13.828125 C 11.640625 -13.773438 11.671875 -13.703125 11.671875 -13.609375 L 11.671875 -0.296875 C 11.671875 -0.203125 11.640625 -0.128906 11.578125 -0.078125 C 11.523438 -0.0234375 11.457031 0 11.375 0 L 10.078125 0 C 9.921875 0 9.800781 -0.0664062 9.71875 -0.203125 L 3.640625 -10.09375 C 3.609375 -10.132812 3.578125 -10.148438 3.546875 -10.140625 C 3.523438 -10.140625 3.515625 -10.113281 3.515625 -10.0625 L 3.53125 -0.296875 C 3.53125 -0.203125 3.503906 -0.128906 3.453125 -0.078125 C 3.398438 -0.0234375 3.328125 0 3.234375 0 Z M 1.921875 0 "/></g></g></g><g fill="#ffffff" fill-opacity="1"><g transform="translate(211.386139, 143.387893)"><g><path d="M 10.375 -13.90625 C 10.46875 -13.90625 10.539062 -13.878906 10.59375 -13.828125 C 10.644531 -13.773438 10.671875 -13.703125 10.671875 -13.609375 L 10.671875 -12.546875 C 10.671875 -12.453125 10.644531 -12.378906 10.59375 -12.328125 C 10.539062 -12.273438 10.46875 -12.25 10.375 -12.25 L 6.671875 -12.25 C 6.609375 -12.25 6.578125 -12.210938 6.578125 -12.140625 L 6.578125 -0.296875 C 6.578125 -0.203125 6.550781 -0.128906 6.5 -0.078125 C 6.445312 -0.0234375 6.375 0 6.28125 0 L 4.96875 0 C 4.875 0 4.800781 -0.0234375 4.75 -0.078125 C 4.695312 -0.128906 4.671875 -0.203125 4.671875 -0.296875 L 4.671875 -12.140625 C 4.671875 -12.210938 4.640625 -12.25 4.578125 -12.25 L 1.046875 -12.25 C 0.960938 -12.25 0.890625 -12.273438 0.828125 -12.328125 C 0.773438 -12.378906 0.75 -12.453125 0.75 -12.546875 L 0.75 -13.609375 C 0.75 -13.703125 0.773438 -13.773438 0.828125 -13.828125 C 0.890625 -13.878906 0.960938 -13.90625 1.046875 -13.90625 Z M 10.375 -13.90625 "/></g></g></g><g fill="#ffffff" fill-opacity="1"><g transform="translate(231.743816, 143.387893)"><g/></g></g><g fill="#ffffff" fill-opacity="1"><g transform="translate(244.668245, 143.387893)"><g><path d="M 12.15625 -0.359375 C 12.226562 -0.265625 12.265625 -0.195312 12.265625 -0.15625 C 12.265625 -0.0507812 12.175781 0 12 0 L 10.53125 0 C 10.382812 0 10.265625 -0.0507812 10.171875 -0.15625 L 9.203125 -1.25 C 9.160156 -1.300781 9.113281 -1.304688 9.0625 -1.265625 C 8.425781 -0.773438 7.78125 -0.414062 7.125 -0.1875 C 6.476562 0.0390625 5.785156 0.15625 5.046875 0.15625 C 3.859375 0.15625 2.882812 -0.125 2.125 -0.6875 C 1.375 -1.25 1 -2.070312 1 -3.15625 C 1 -4.070312 1.25 -4.847656 1.75 -5.484375 C 2.25 -6.117188 2.941406 -6.71875 3.828125 -7.28125 C 3.890625 -7.332031 3.890625 -7.375 3.828125 -7.40625 C 3.109375 -8.300781 2.628906 -8.96875 2.390625 -9.40625 C 2.148438 -9.851562 2.03125 -10.300781 2.03125 -10.75 C 2.03125 -11.75 2.359375 -12.550781 3.015625 -13.15625 C 3.671875 -13.769531 4.539062 -14.078125 5.625 -14.078125 C 6.707031 -14.078125 7.597656 -13.773438 8.296875 -13.171875 C 9.003906 -12.578125 9.359375 -11.796875 9.359375 -10.828125 C 9.359375 -10.003906 9.113281 -9.304688 8.625 -8.734375 C 8.144531 -8.171875 7.460938 -7.613281 6.578125 -7.0625 C 6.523438 -7.019531 6.519531 -6.972656 6.5625 -6.921875 L 9.109375 -3.96875 L 9.1875 -3.875 C 9.21875 -3.832031 9.265625 -3.832031 9.328125 -3.875 C 9.628906 -4.25 10.03125 -4.78125 10.53125 -5.46875 C 10.601562 -5.570312 10.679688 -5.625 10.765625 -5.625 C 10.828125 -5.625 10.890625 -5.601562 10.953125 -5.5625 L 11.90625 -5.03125 C 12 -4.976562 12.046875 -4.898438 12.046875 -4.796875 C 12.046875 -4.734375 12.023438 -4.671875 11.984375 -4.609375 C 11.398438 -3.765625 10.878906 -3.078125 10.421875 -2.546875 L 10.390625 -2.5 C 10.390625 -2.445312 10.414062 -2.394531 10.46875 -2.34375 Z M 5.671875 -12.328125 C 5.148438 -12.328125 4.726562 -12.179688 4.40625 -11.890625 C 4.09375 -11.609375 3.9375 -11.226562 3.9375 -10.75 C 3.9375 -10.488281 4.023438 -10.203125 4.203125 -9.890625 C 4.378906 -9.578125 4.757812 -9.0625 5.34375 -8.34375 C 5.382812 -8.289062 5.429688 -8.285156 5.484375 -8.328125 C 6.128906 -8.765625 6.617188 -9.164062 6.953125 -9.53125 C 7.285156 -9.90625 7.453125 -10.328125 7.453125 -10.796875 C 7.453125 -11.253906 7.285156 -11.625 6.953125 -11.90625 C 6.617188 -12.1875 6.191406 -12.328125 5.671875 -12.328125 Z M 5.0625 -1.46875 C 6.019531 -1.46875 6.976562 -1.832031 7.9375 -2.5625 C 7.988281 -2.601562 7.988281 -2.648438 7.9375 -2.703125 L 7.375 -3.359375 C 7.050781 -3.742188 6.78125 -4.054688 6.5625 -4.296875 C 6.082031 -4.804688 5.71875 -5.21875 5.46875 -5.53125 L 5.0625 -5.984375 C 5.03125 -6.035156 4.984375 -6.039062 4.921875 -6 C 4.265625 -5.539062 3.765625 -5.097656 3.421875 -4.671875 C 3.078125 -4.253906 2.90625 -3.773438 2.90625 -3.234375 C 2.90625 -2.691406 3.097656 -2.257812 3.484375 -1.9375 C 3.878906 -1.625 4.40625 -1.46875 5.0625 -1.46875 Z M 5.0625 -1.46875 "/></g></g></g><g fill="#ffffff" fill-opacity="1"><g transform="translate(267.073029, 143.387893)"><g/></g></g><g fill="#ffffff" fill-opacity="1"><g transform="translate(279.997459, 143.387893)"><g><path d="M 6.109375 0.171875 C 5.148438 0.171875 4.300781 -0.015625 3.5625 -0.390625 C 2.832031 -0.765625 2.265625 -1.300781 1.859375 -2 C 1.453125 -2.695312 1.25 -3.492188 1.25 -4.390625 L 1.25 -9.546875 C 1.25 -10.441406 1.453125 -11.226562 1.859375 -11.90625 C 2.265625 -12.59375 2.832031 -13.125 3.5625 -13.5 C 4.300781 -13.882812 5.148438 -14.078125 6.109375 -14.078125 C 7.054688 -14.078125 7.894531 -13.894531 8.625 -13.53125 C 9.351562 -13.164062 9.921875 -12.648438 10.328125 -11.984375 C 10.734375 -11.316406 10.9375 -10.546875 10.9375 -9.671875 C 10.9375 -9.546875 10.835938 -9.46875 10.640625 -9.4375 L 9.328125 -9.359375 L 9.234375 -9.359375 C 9.171875 -9.359375 9.117188 -9.367188 9.078125 -9.390625 C 9.035156 -9.421875 9.015625 -9.453125 9.015625 -9.484375 L 9.015625 -9.59375 C 9.015625 -10.445312 8.75 -11.128906 8.21875 -11.640625 C 7.695312 -12.160156 6.992188 -12.421875 6.109375 -12.421875 C 5.210938 -12.421875 4.492188 -12.160156 3.953125 -11.640625 C 3.421875 -11.128906 3.15625 -10.445312 3.15625 -9.59375 L 3.15625 -4.3125 C 3.15625 -3.46875 3.421875 -2.785156 3.953125 -2.265625 C 4.492188 -1.742188 5.210938 -1.484375 6.109375 -1.484375 C 6.992188 -1.484375 7.695312 -1.742188 8.21875 -2.265625 C 8.75 -2.785156 9.015625 -3.46875 9.015625 -4.3125 C 9.015625 -4.394531 9.039062 -4.453125 9.09375 -4.484375 C 9.15625 -4.523438 9.234375 -4.539062 9.328125 -4.53125 L 10.640625 -4.453125 C 10.835938 -4.421875 10.9375 -4.390625 10.9375 -4.359375 L 10.9375 -4.25 C 10.9375 -3.375 10.734375 -2.601562 10.328125 -1.9375 C 9.921875 -1.269531 9.351562 -0.75 8.625 -0.375 C 7.894531 -0.0078125 7.054688 0.171875 6.109375 0.171875 Z M 6.109375 0.171875 "/></g></g></g><g fill="#ffffff" fill-opacity="1"><g transform="translate(301.011007, 143.387893)"><g><path d="M 10.15625 0 C 9.976562 0 9.863281 -0.078125 9.8125 -0.234375 L 9.125 -2.46875 C 9.09375 -2.519531 9.054688 -2.546875 9.015625 -2.546875 L 3.484375 -2.546875 C 3.441406 -2.546875 3.40625 -2.519531 3.375 -2.46875 L 2.6875 -0.234375 C 2.632812 -0.078125 2.519531 0 2.34375 0 L 0.9375 0 C 0.707031 0 0.628906 -0.113281 0.703125 -0.34375 L 4.984375 -13.671875 C 5.035156 -13.828125 5.148438 -13.90625 5.328125 -13.90625 L 7.15625 -13.90625 C 7.320312 -13.90625 7.4375 -13.828125 7.5 -13.671875 L 11.828125 -0.34375 C 11.835938 -0.3125 11.84375 -0.269531 11.84375 -0.21875 C 11.84375 -0.0703125 11.757812 0 11.59375 0 Z M 3.890625 -4.171875 C 3.878906 -4.085938 3.90625 -4.046875 3.96875 -4.046875 L 8.53125 -4.046875 C 8.601562 -4.046875 8.628906 -4.085938 8.609375 -4.171875 L 6.296875 -11.59375 C 6.285156 -11.644531 6.265625 -11.671875 6.234375 -11.671875 C 6.210938 -11.671875 6.195312 -11.644531 6.1875 -11.59375 Z M 3.890625 -4.171875 "/></g></g></g><g fill="#ffffff" fill-opacity="1"><g transform="translate(322.481678, 143.387893)"><g><path d="M 10.859375 -12.5625 C 10.859375 -12.46875 10.828125 -12.394531 10.765625 -12.34375 C 10.710938 -12.289062 10.640625 -12.265625 10.546875 -12.265625 L 3.640625 -12.265625 C 3.566406 -12.265625 3.53125 -12.226562 3.53125 -12.15625 L 3.53125 -7.9375 C 3.53125 -7.863281 3.566406 -7.828125 3.640625 -7.828125 L 8.34375 -7.828125 C 8.4375 -7.828125 8.507812 -7.800781 8.5625 -7.75 C 8.613281 -7.695312 8.640625 -7.625 8.640625 -7.53125 L 8.640625 -6.484375 C 8.640625 -6.390625 8.613281 -6.316406 8.5625 -6.265625 C 8.507812 -6.210938 8.4375 -6.1875 8.34375 -6.1875 L 3.640625 -6.1875 C 3.566406 -6.1875 3.53125 -6.148438 3.53125 -6.078125 L 3.53125 -0.296875 C 3.53125 -0.203125 3.503906 -0.128906 3.453125 -0.078125 C 3.398438 -0.0234375 3.328125 0 3.234375 0 L 1.921875 0 C 1.828125 0 1.753906 -0.0234375 1.703125 -0.078125 C 1.648438 -0.128906 1.625 -0.203125 1.625 -0.296875 L 1.625 -13.609375 C 1.625 -13.703125 1.648438 -13.773438 1.703125 -13.828125 C 1.753906 -13.878906 1.828125 -13.90625 1.921875 -13.90625 L 10.546875 -13.90625 C 10.640625 -13.90625 10.710938 -13.878906 10.765625 -13.828125 C 10.828125 -13.773438 10.859375 -13.703125 10.859375 -13.609375 Z M 10.859375 -12.5625 "/></g></g></g><g fill="#ffffff" fill-opacity="1"><g transform="translate(342.660472, 143.387893)"><g><path d="M 10.875 -12.5625 C 10.875 -12.46875 10.847656 -12.394531 10.796875 -12.34375 C 10.742188 -12.289062 10.671875 -12.265625 10.578125 -12.265625 L 3.640625 -12.265625 C 3.566406 -12.265625 3.53125 -12.226562 3.53125 -12.15625 L 3.53125 -7.9375 C 3.53125 -7.863281 3.566406 -7.828125 3.640625 -7.828125 L 8.375 -7.828125 C 8.457031 -7.828125 8.523438 -7.800781 8.578125 -7.75 C 8.640625 -7.695312 8.671875 -7.625 8.671875 -7.53125 L 8.671875 -6.484375 C 8.671875 -6.390625 8.640625 -6.316406 8.578125 -6.265625 C 8.523438 -6.210938 8.457031 -6.1875 8.375 -6.1875 L 3.640625 -6.1875 C 3.566406 -6.1875 3.53125 -6.148438 3.53125 -6.078125 L 3.53125 -1.75 C 3.53125 -1.6875 3.566406 -1.65625 3.640625 -1.65625 L 10.578125 -1.65625 C 10.671875 -1.65625 10.742188 -1.625 10.796875 -1.5625 C 10.847656 -1.507812 10.875 -1.4375 10.875 -1.34375 L 10.875 -0.296875 C 10.875 -0.203125 10.847656 -0.128906 10.796875 -0.078125 C 10.742188 -0.0234375 10.671875 0 10.578125 0 L 1.921875 0 C 1.828125 0 1.753906 -0.0234375 1.703125 -0.078125 C 1.648438 -0.128906 1.625 -0.203125 1.625 -0.296875 L 1.625 -13.609375 C 1.625 -13.703125 1.648438 -13.773438 1.703125 -13.828125 C 1.753906 -13.878906 1.828125 -13.90625 1.921875 -13.90625 L 10.578125 -13.90625 C 10.671875 -13.90625 10.742188 -13.878906 10.796875 -13.828125 C 10.847656 -13.773438 10.875 -13.703125 10.875 -13.609375 Z M 10.875 -12.5625 "/></g></g></g></svg>