<svg xmlns="http://www.w3.org/2000/svg" xmlns:xlink="http://www.w3.org/1999/xlink" width="500" zoomAndPan="magnify" viewBox="0 0 375 374.999991" height="500" preserveAspectRatio="xMidYMid meet" version="1.0"><defs><g/><clipPath id="id1"><path d="M 224.238281 155.992188 L 241.488281 155.992188 L 241.488281 173.242188 L 224.238281 173.242188 Z M 224.238281 155.992188 " clip-rule="nonzero"/></clipPath><clipPath id="id2"><path d="M 127.6875 188.28125 L 144.9375 188.28125 L 144.9375 205.53125 L 127.6875 205.53125 Z M 127.6875 188.28125 " clip-rule="nonzero"/></clipPath></defs><path stroke-linecap="butt" transform="matrix(0.75601, 0, 0, 0.705882, 139.196743, 197.354973)" fill="none" stroke-linejoin="miter" d="M -0.00189265 0.000702822 L 56.550156 0.000702822 " stroke="#ffffff" stroke-width="1" stroke-opacity="1" stroke-miterlimit="4"/><path stroke-linecap="butt" transform="matrix(0.75601, 0, 0, 0.705882, 187.499992, 164.261269)" fill="none" stroke-linejoin="miter" d="M 0.0000103339 0.000636843 L 56.552059 0.000636843 " stroke="#ffffff" stroke-width="1" stroke-opacity="1" stroke-miterlimit="4"/><g clip-path="url(#id1)"><path fill="#ffffff" d="M 232.863281 155.992188 C 232.023438 163.09375 231.34375 163.777344 224.238281 164.617188 C 224.253906 164.617188 224.269531 164.621094 224.285156 164.621094 C 231.34375 165.460938 232.027344 166.152344 232.863281 173.242188 C 233.703125 166.140625 234.386719 165.457031 241.488281 164.617188 C 234.386719 163.777344 233.703125 163.09375 232.863281 155.992188 Z M 232.863281 155.992188 " fill-opacity="1" fill-rule="nonzero"/></g><g clip-path="url(#id2)"><path fill="#ffffff" d="M 136.3125 188.28125 C 135.472656 195.386719 134.789062 196.066406 127.6875 196.90625 C 127.703125 196.910156 127.714844 196.910156 127.730469 196.914062 C 134.792969 197.75 135.472656 198.445312 136.3125 205.53125 C 137.152344 198.429688 137.832031 197.746094 144.9375 196.90625 C 137.832031 196.066406 137.152344 195.386719 136.3125 188.28125 Z M 136.3125 188.28125 " fill-opacity="1" fill-rule="nonzero"/></g><g fill="#ffffff" fill-opacity="1"><g transform="translate(156.752214, 191.002459)"><g><path d="M 16.574219 0.207031 C 17.164062 0.207031 17.933594 0.148438 18.378906 0 L 18.378906 -0.355469 C 18.230469 -0.324219 18.082031 -0.324219 17.90625 -0.324219 C 16.898438 -0.324219 16.308594 -1.300781 14.886719 -4.855469 C 13.464844 -8.492188 12.902344 -10.300781 9.261719 -10.773438 C 13.109375 -11.214844 15.121094 -13.316406 15.121094 -16.101562 C 15.121094 -18.734375 13.347656 -20.714844 7.339844 -20.714844 L 1.507812 -20.714844 L 1.507812 -20.332031 C 2.425781 -20.066406 2.691406 -19.382812 2.691406 -16.957031 L 2.691406 -3.757812 C 2.691406 -1.332031 2.425781 -0.652344 1.507812 -0.382812 L 1.507812 0 L 6.304688 0 L 6.304688 -0.382812 C 5.386719 -0.652344 5.121094 -1.332031 5.121094 -3.757812 L 5.121094 -10.683594 L 7.015625 -10.683594 C 10.566406 -10.683594 10.800781 -8.613281 12.519531 -4.527344 C 13.820312 -1.449219 14.292969 0.207031 16.574219 0.207031 Z M 5.121094 -11.128906 L 5.121094 -20.214844 C 5.59375 -20.242188 6.066406 -20.273438 6.511719 -20.273438 C 10.890625 -20.273438 12.609375 -18.054688 12.609375 -15.417969 C 12.609375 -12.902344 11.007812 -11.128906 7.605469 -11.128906 Z M 5.121094 -11.128906 "/></g></g></g><g fill="#ffffff" fill-opacity="1"><g transform="translate(174.861149, 191.002459)"><g><path d="M 18.644531 0.207031 C 21.128906 0.207031 24.269531 -2.960938 24.269531 -6.304688 C 24.269531 -8.167969 23.171875 -9.855469 21.515625 -10.625 L 24.949219 -10.625 L 25.097656 -11.039062 L 14.414062 -11.039062 L 14.265625 -10.625 L 20.746094 -10.625 C 21.664062 -10.300781 22.375 -7.546875 22.375 -5.769531 C 22.375 -3.460938 22.078125 -1.125 20.6875 -1.125 C 18.882812 -1.125 14.621094 -5.121094 11.15625 -9.144531 C 9.085938 -11.570312 6.601562 -14.707031 6.601562 -17.164062 C 6.601562 -18.585938 7.605469 -20.363281 10.0625 -20.363281 C 11.75 -20.363281 13.703125 -19.800781 15.121094 -16.484375 L 15.390625 -16.542969 L 15.0625 -19.976562 C 13.761719 -20.714844 12.105469 -20.921875 10.949219 -20.921875 C 6.332031 -20.921875 4.617188 -18.140625 4.617188 -15.953125 C 4.617188 -14.53125 5.207031 -13.140625 6.125 -11.628906 C 2.546875 -10.386719 0.859375 -8.078125 0.859375 -5.445312 C 0.859375 -2.367188 3.195312 0.296875 6.660156 0.296875 C 9.054688 0.296875 11.15625 -1.183594 12.578125 -3.875 C 14.886719 -1.597656 17.253906 0.207031 18.644531 0.207031 Z M 2.929688 -6.511719 C 2.929688 -8.347656 3.699219 -10.300781 6.332031 -11.335938 C 7.132812 -10.09375 8.167969 -8.820312 9.324219 -7.457031 C 10.238281 -6.363281 11.246094 -5.207031 12.28125 -4.171875 C 11.1875 -2.308594 9.382812 -1.300781 7.84375 -1.300781 C 4.734375 -1.300781 2.929688 -3.9375 2.929688 -6.511719 Z M 2.929688 -6.511719 "/></g></g></g><g fill="#ffffff" fill-opacity="1"><g transform="translate(200.219584, 191.002459)"><g><path d="M 16.574219 0.207031 C 17.164062 0.207031 17.933594 0.148438 18.378906 0 L 18.378906 -0.355469 C 18.230469 -0.324219 18.082031 -0.324219 17.90625 -0.324219 C 16.898438 -0.324219 16.308594 -1.300781 14.886719 -4.855469 C 13.464844 -8.492188 12.902344 -10.300781 9.261719 -10.773438 C 13.109375 -11.214844 15.121094 -13.316406 15.121094 -16.101562 C 15.121094 -18.734375 13.347656 -20.714844 7.339844 -20.714844 L 1.507812 -20.714844 L 1.507812 -20.332031 C 2.425781 -20.066406 2.691406 -19.382812 2.691406 -16.957031 L 2.691406 -3.757812 C 2.691406 -1.332031 2.425781 -0.652344 1.507812 -0.382812 L 1.507812 0 L 6.304688 0 L 6.304688 -0.382812 C 5.386719 -0.652344 5.121094 -1.332031 5.121094 -3.757812 L 5.121094 -10.683594 L 7.015625 -10.683594 C 10.566406 -10.683594 10.800781 -8.613281 12.519531 -4.527344 C 13.820312 -1.449219 14.292969 0.207031 16.574219 0.207031 Z M 5.121094 -11.128906 L 5.121094 -20.214844 C 5.59375 -20.242188 6.066406 -20.273438 6.511719 -20.273438 C 10.890625 -20.273438 12.609375 -18.054688 12.609375 -15.417969 C 12.609375 -12.902344 11.007812 -11.128906 7.605469 -11.128906 Z M 5.121094 -11.128906 "/></g></g></g><g fill="#ffffff" fill-opacity="1"><g transform="translate(120.314536, 213.588843)"><g><path d="M 3.875 0 C 3.8125 0 3.769531 -0.03125 3.75 -0.09375 L 2.640625 -2.453125 C 2.628906 -2.472656 2.613281 -2.484375 2.59375 -2.484375 L 1.46875 -2.484375 C 1.4375 -2.484375 1.421875 -2.472656 1.421875 -2.453125 L 1.421875 -0.125 C 1.421875 -0.0820312 1.410156 -0.0507812 1.390625 -0.03125 C 1.367188 -0.0078125 1.335938 0 1.296875 0 L 0.78125 0 C 0.738281 0 0.707031 -0.0078125 0.6875 -0.03125 C 0.664062 -0.0507812 0.65625 -0.0820312 0.65625 -0.125 L 0.65625 -5.484375 C 0.65625 -5.523438 0.664062 -5.554688 0.6875 -5.578125 C 0.707031 -5.597656 0.738281 -5.609375 0.78125 -5.609375 L 2.890625 -5.609375 C 3.210938 -5.609375 3.492188 -5.539062 3.734375 -5.40625 C 3.972656 -5.269531 4.160156 -5.082031 4.296875 -4.84375 C 4.429688 -4.601562 4.5 -4.328125 4.5 -4.015625 C 4.5 -3.648438 4.398438 -3.335938 4.203125 -3.078125 C 4.003906 -2.816406 3.738281 -2.640625 3.40625 -2.546875 C 3.382812 -2.535156 3.375 -2.519531 3.375 -2.5 L 4.515625 -0.140625 L 4.53125 -0.078125 C 4.53125 -0.0234375 4.492188 0 4.421875 0 Z M 1.46875 -4.9375 C 1.4375 -4.9375 1.421875 -4.925781 1.421875 -4.90625 L 1.421875 -3.125 C 1.421875 -3.101562 1.4375 -3.09375 1.46875 -3.09375 L 2.796875 -3.09375 C 3.066406 -3.09375 3.289062 -3.175781 3.46875 -3.34375 C 3.644531 -3.507812 3.734375 -3.734375 3.734375 -4.015625 C 3.734375 -4.296875 3.644531 -4.519531 3.46875 -4.6875 C 3.300781 -4.851562 3.078125 -4.9375 2.796875 -4.9375 Z M 1.46875 -4.9375 "/></g></g></g><g fill="#ffffff" fill-opacity="1"><g transform="translate(128.818594, 213.588843)"><g><path d="M 4.375 -5.0625 C 4.375 -5.019531 4.363281 -4.988281 4.34375 -4.96875 C 4.320312 -4.945312 4.289062 -4.9375 4.25 -4.9375 L 1.46875 -4.9375 C 1.4375 -4.9375 1.421875 -4.921875 1.421875 -4.890625 L 1.421875 -3.1875 C 1.421875 -3.164062 1.4375 -3.15625 1.46875 -3.15625 L 3.375 -3.15625 C 3.40625 -3.15625 3.429688 -3.144531 3.453125 -3.125 C 3.472656 -3.101562 3.484375 -3.070312 3.484375 -3.03125 L 3.484375 -2.609375 C 3.484375 -2.566406 3.472656 -2.535156 3.453125 -2.515625 C 3.429688 -2.492188 3.40625 -2.484375 3.375 -2.484375 L 1.46875 -2.484375 C 1.4375 -2.484375 1.421875 -2.472656 1.421875 -2.453125 L 1.421875 -0.703125 C 1.421875 -0.671875 1.4375 -0.65625 1.46875 -0.65625 L 4.25 -0.65625 C 4.289062 -0.65625 4.320312 -0.644531 4.34375 -0.625 C 4.363281 -0.601562 4.375 -0.578125 4.375 -0.546875 L 4.375 -0.125 C 4.375 -0.0820312 4.363281 -0.0507812 4.34375 -0.03125 C 4.320312 -0.0078125 4.289062 0 4.25 0 L 0.78125 0 C 0.738281 0 0.707031 -0.0078125 0.6875 -0.03125 C 0.664062 -0.0507812 0.65625 -0.0820312 0.65625 -0.125 L 0.65625 -5.484375 C 0.65625 -5.515625 0.664062 -5.539062 0.6875 -5.5625 C 0.707031 -5.582031 0.738281 -5.59375 0.78125 -5.59375 L 4.25 -5.59375 C 4.289062 -5.59375 4.320312 -5.582031 4.34375 -5.5625 C 4.363281 -5.539062 4.375 -5.515625 4.375 -5.484375 Z M 4.375 -5.0625 "/></g></g></g><g fill="#ffffff" fill-opacity="1"><g transform="translate(137.202656, 213.588843)"><g><path d="M 2.390625 0.0625 C 1.984375 0.0625 1.628906 0 1.328125 -0.125 C 1.035156 -0.25 0.804688 -0.429688 0.640625 -0.671875 C 0.484375 -0.910156 0.40625 -1.1875 0.40625 -1.5 L 0.40625 -1.6875 C 0.40625 -1.726562 0.414062 -1.757812 0.4375 -1.78125 C 0.457031 -1.800781 0.484375 -1.8125 0.515625 -1.8125 L 1.03125 -1.8125 C 1.070312 -1.8125 1.101562 -1.800781 1.125 -1.78125 C 1.144531 -1.757812 1.15625 -1.726562 1.15625 -1.6875 L 1.15625 -1.53125 C 1.15625 -1.257812 1.269531 -1.035156 1.5 -0.859375 C 1.738281 -0.679688 2.050781 -0.59375 2.4375 -0.59375 C 2.800781 -0.59375 3.078125 -0.671875 3.265625 -0.828125 C 3.453125 -0.984375 3.546875 -1.1875 3.546875 -1.4375 C 3.546875 -1.601562 3.5 -1.742188 3.40625 -1.859375 C 3.3125 -1.984375 3.171875 -2.09375 2.984375 -2.1875 C 2.804688 -2.289062 2.539062 -2.410156 2.1875 -2.546875 C 1.789062 -2.691406 1.476562 -2.828125 1.25 -2.953125 C 1.03125 -3.078125 0.84375 -3.238281 0.6875 -3.4375 C 0.539062 -3.632812 0.46875 -3.882812 0.46875 -4.1875 C 0.46875 -4.644531 0.628906 -5.003906 0.953125 -5.265625 C 1.285156 -5.523438 1.734375 -5.65625 2.296875 -5.65625 C 2.691406 -5.65625 3.035156 -5.585938 3.328125 -5.453125 C 3.628906 -5.328125 3.859375 -5.144531 4.015625 -4.90625 C 4.179688 -4.664062 4.265625 -4.390625 4.265625 -4.078125 L 4.265625 -3.953125 C 4.265625 -3.910156 4.253906 -3.878906 4.234375 -3.859375 C 4.210938 -3.835938 4.1875 -3.828125 4.15625 -3.828125 L 3.625 -3.828125 C 3.59375 -3.828125 3.566406 -3.835938 3.546875 -3.859375 C 3.523438 -3.878906 3.515625 -3.90625 3.515625 -3.9375 L 3.515625 -4.03125 C 3.515625 -4.3125 3.398438 -4.539062 3.171875 -4.71875 C 2.953125 -4.90625 2.648438 -5 2.265625 -5 C 1.929688 -5 1.671875 -4.929688 1.484375 -4.796875 C 1.304688 -4.660156 1.21875 -4.460938 1.21875 -4.203125 C 1.21875 -4.023438 1.265625 -3.878906 1.359375 -3.765625 C 1.453125 -3.660156 1.585938 -3.5625 1.765625 -3.46875 C 1.941406 -3.382812 2.210938 -3.273438 2.578125 -3.140625 C 2.960938 -2.984375 3.269531 -2.84375 3.5 -2.71875 C 3.738281 -2.59375 3.929688 -2.425781 4.078125 -2.21875 C 4.234375 -2.019531 4.3125 -1.769531 4.3125 -1.46875 C 4.3125 -1.164062 4.234375 -0.894531 4.078125 -0.65625 C 3.929688 -0.425781 3.707031 -0.25 3.40625 -0.125 C 3.113281 0 2.773438 0.0625 2.390625 0.0625 Z M 2.390625 0.0625 "/></g></g></g><g fill="#ffffff" fill-opacity="1"><g transform="translate(145.50671, 213.588843)"><g><path d="M 4.171875 -5.59375 C 4.210938 -5.59375 4.242188 -5.582031 4.265625 -5.5625 C 4.285156 -5.539062 4.296875 -5.515625 4.296875 -5.484375 L 4.296875 -5.046875 C 4.296875 -5.003906 4.285156 -4.972656 4.265625 -4.953125 C 4.242188 -4.929688 4.210938 -4.921875 4.171875 -4.921875 L 2.6875 -4.921875 C 2.65625 -4.921875 2.640625 -4.910156 2.640625 -4.890625 L 2.640625 -0.125 C 2.640625 -0.0820312 2.628906 -0.0507812 2.609375 -0.03125 C 2.585938 -0.0078125 2.5625 0 2.53125 0 L 2 0 C 1.957031 0 1.925781 -0.0078125 1.90625 -0.03125 C 1.882812 -0.0507812 1.875 -0.0820312 1.875 -0.125 L 1.875 -4.890625 C 1.875 -4.910156 1.863281 -4.921875 1.84375 -4.921875 L 0.421875 -4.921875 C 0.390625 -4.921875 0.359375 -4.929688 0.328125 -4.953125 C 0.304688 -4.972656 0.296875 -5.003906 0.296875 -5.046875 L 0.296875 -5.484375 C 0.296875 -5.515625 0.304688 -5.539062 0.328125 -5.5625 C 0.359375 -5.582031 0.390625 -5.59375 0.421875 -5.59375 Z M 4.171875 -5.59375 "/></g></g></g><g fill="#ffffff" fill-opacity="1"><g transform="translate(153.698766, 213.588843)"><g><path d="M 4.09375 0 C 4.019531 0 3.972656 -0.03125 3.953125 -0.09375 L 3.671875 -0.984375 C 3.660156 -1.015625 3.644531 -1.03125 3.625 -1.03125 L 1.40625 -1.03125 C 1.382812 -1.03125 1.367188 -1.015625 1.359375 -0.984375 L 1.078125 -0.09375 C 1.054688 -0.03125 1.007812 0 0.9375 0 L 0.375 0 C 0.28125 0 0.25 -0.046875 0.28125 -0.140625 L 2.015625 -5.5 C 2.035156 -5.5625 2.078125 -5.59375 2.140625 -5.59375 L 2.875 -5.59375 C 2.945312 -5.59375 2.992188 -5.5625 3.015625 -5.5 L 4.765625 -0.140625 C 4.765625 -0.128906 4.765625 -0.113281 4.765625 -0.09375 C 4.765625 -0.03125 4.726562 0 4.65625 0 Z M 1.5625 -1.6875 C 1.5625 -1.644531 1.570312 -1.625 1.59375 -1.625 L 3.4375 -1.625 C 3.46875 -1.625 3.476562 -1.644531 3.46875 -1.6875 L 2.53125 -4.65625 C 2.53125 -4.6875 2.523438 -4.703125 2.515625 -4.703125 C 2.503906 -4.703125 2.492188 -4.6875 2.484375 -4.65625 Z M 1.5625 -1.6875 "/></g></g></g><g fill="#ffffff" fill-opacity="1"><g transform="translate(162.338832, 213.588843)"><g><path d="M 2.5625 0.0625 C 2.175781 0.0625 1.832031 -0.0078125 1.53125 -0.15625 C 1.238281 -0.3125 1.007812 -0.53125 0.84375 -0.8125 C 0.675781 -1.09375 0.59375 -1.414062 0.59375 -1.78125 L 0.59375 -5.484375 C 0.59375 -5.515625 0.601562 -5.539062 0.625 -5.5625 C 0.644531 -5.582031 0.675781 -5.59375 0.71875 -5.59375 L 1.25 -5.59375 C 1.28125 -5.59375 1.304688 -5.582031 1.328125 -5.5625 C 1.359375 -5.539062 1.375 -5.515625 1.375 -5.484375 L 1.375 -1.765625 C 1.375 -1.410156 1.484375 -1.125 1.703125 -0.90625 C 1.921875 -0.695312 2.207031 -0.59375 2.5625 -0.59375 C 2.925781 -0.59375 3.21875 -0.695312 3.4375 -0.90625 C 3.65625 -1.125 3.765625 -1.410156 3.765625 -1.765625 L 3.765625 -5.484375 C 3.765625 -5.515625 3.773438 -5.539062 3.796875 -5.5625 C 3.816406 -5.582031 3.84375 -5.59375 3.875 -5.59375 L 4.40625 -5.59375 C 4.445312 -5.59375 4.476562 -5.582031 4.5 -5.5625 C 4.519531 -5.539062 4.53125 -5.515625 4.53125 -5.484375 L 4.53125 -1.78125 C 4.53125 -1.414062 4.445312 -1.09375 4.28125 -0.8125 C 4.125 -0.53125 3.894531 -0.3125 3.59375 -0.15625 C 3.300781 -0.0078125 2.957031 0.0625 2.5625 0.0625 Z M 2.5625 0.0625 "/></g></g></g><g fill="#ffffff" fill-opacity="1"><g transform="translate(171.066891, 213.588843)"><g><path d="M 3.875 0 C 3.8125 0 3.769531 -0.03125 3.75 -0.09375 L 2.640625 -2.453125 C 2.628906 -2.472656 2.613281 -2.484375 2.59375 -2.484375 L 1.46875 -2.484375 C 1.4375 -2.484375 1.421875 -2.472656 1.421875 -2.453125 L 1.421875 -0.125 C 1.421875 -0.0820312 1.410156 -0.0507812 1.390625 -0.03125 C 1.367188 -0.0078125 1.335938 0 1.296875 0 L 0.78125 0 C 0.738281 0 0.707031 -0.0078125 0.6875 -0.03125 C 0.664062 -0.0507812 0.65625 -0.0820312 0.65625 -0.125 L 0.65625 -5.484375 C 0.65625 -5.523438 0.664062 -5.554688 0.6875 -5.578125 C 0.707031 -5.597656 0.738281 -5.609375 0.78125 -5.609375 L 2.890625 -5.609375 C 3.210938 -5.609375 3.492188 -5.539062 3.734375 -5.40625 C 3.972656 -5.269531 4.160156 -5.082031 4.296875 -4.84375 C 4.429688 -4.601562 4.5 -4.328125 4.5 -4.015625 C 4.5 -3.648438 4.398438 -3.335938 4.203125 -3.078125 C 4.003906 -2.816406 3.738281 -2.640625 3.40625 -2.546875 C 3.382812 -2.535156 3.375 -2.519531 3.375 -2.5 L 4.515625 -0.140625 L 4.53125 -0.078125 C 4.53125 -0.0234375 4.492188 0 4.421875 0 Z M 1.46875 -4.9375 C 1.4375 -4.9375 1.421875 -4.925781 1.421875 -4.90625 L 1.421875 -3.125 C 1.421875 -3.101562 1.4375 -3.09375 1.46875 -3.09375 L 2.796875 -3.09375 C 3.066406 -3.09375 3.289062 -3.175781 3.46875 -3.34375 C 3.644531 -3.507812 3.734375 -3.734375 3.734375 -4.015625 C 3.734375 -4.296875 3.644531 -4.519531 3.46875 -4.6875 C 3.300781 -4.851562 3.078125 -4.9375 2.796875 -4.9375 Z M 1.46875 -4.9375 "/></g></g></g><g fill="#ffffff" fill-opacity="1"><g transform="translate(179.57095, 213.588843)"><g><path d="M 4.09375 0 C 4.019531 0 3.972656 -0.03125 3.953125 -0.09375 L 3.671875 -0.984375 C 3.660156 -1.015625 3.644531 -1.03125 3.625 -1.03125 L 1.40625 -1.03125 C 1.382812 -1.03125 1.367188 -1.015625 1.359375 -0.984375 L 1.078125 -0.09375 C 1.054688 -0.03125 1.007812 0 0.9375 0 L 0.375 0 C 0.28125 0 0.25 -0.046875 0.28125 -0.140625 L 2.015625 -5.5 C 2.035156 -5.5625 2.078125 -5.59375 2.140625 -5.59375 L 2.875 -5.59375 C 2.945312 -5.59375 2.992188 -5.5625 3.015625 -5.5 L 4.765625 -0.140625 C 4.765625 -0.128906 4.765625 -0.113281 4.765625 -0.09375 C 4.765625 -0.03125 4.726562 0 4.65625 0 Z M 1.5625 -1.6875 C 1.5625 -1.644531 1.570312 -1.625 1.59375 -1.625 L 3.4375 -1.625 C 3.46875 -1.625 3.476562 -1.644531 3.46875 -1.6875 L 2.53125 -4.65625 C 2.53125 -4.6875 2.523438 -4.703125 2.515625 -4.703125 C 2.503906 -4.703125 2.492188 -4.6875 2.484375 -4.65625 Z M 1.5625 -1.6875 "/></g></g></g><g fill="#ffffff" fill-opacity="1"><g transform="translate(188.211016, 213.588843)"><g><path d="M 0.78125 0 C 0.738281 0 0.707031 -0.0078125 0.6875 -0.03125 C 0.664062 -0.0507812 0.65625 -0.0820312 0.65625 -0.125 L 0.65625 -5.484375 C 0.65625 -5.515625 0.664062 -5.539062 0.6875 -5.5625 C 0.707031 -5.582031 0.738281 -5.59375 0.78125 -5.59375 L 1.28125 -5.59375 C 1.351562 -5.59375 1.40625 -5.566406 1.4375 -5.515625 L 3.875 -1.5625 C 3.882812 -1.539062 3.894531 -1.53125 3.90625 -1.53125 C 3.914062 -1.539062 3.921875 -1.554688 3.921875 -1.578125 L 3.921875 -5.484375 C 3.921875 -5.515625 3.929688 -5.539062 3.953125 -5.5625 C 3.972656 -5.582031 4.003906 -5.59375 4.046875 -5.59375 L 4.578125 -5.59375 C 4.609375 -5.59375 4.632812 -5.582031 4.65625 -5.5625 C 4.6875 -5.539062 4.703125 -5.515625 4.703125 -5.484375 L 4.703125 -0.125 C 4.703125 -0.0820312 4.6875 -0.0507812 4.65625 -0.03125 C 4.632812 -0.0078125 4.609375 0 4.578125 0 L 4.0625 0 C 3.988281 0 3.9375 -0.0234375 3.90625 -0.078125 L 1.46875 -4.0625 C 1.457031 -4.082031 1.445312 -4.085938 1.4375 -4.078125 C 1.425781 -4.078125 1.421875 -4.066406 1.421875 -4.046875 L 1.421875 -0.125 C 1.421875 -0.0820312 1.410156 -0.0507812 1.390625 -0.03125 C 1.367188 -0.0078125 1.335938 0 1.296875 0 Z M 0.78125 0 "/></g></g></g><g fill="#ffffff" fill-opacity="1"><g transform="translate(197.155078, 213.588843)"><g><path d="M 4.171875 -5.59375 C 4.210938 -5.59375 4.242188 -5.582031 4.265625 -5.5625 C 4.285156 -5.539062 4.296875 -5.515625 4.296875 -5.484375 L 4.296875 -5.046875 C 4.296875 -5.003906 4.285156 -4.972656 4.265625 -4.953125 C 4.242188 -4.929688 4.210938 -4.921875 4.171875 -4.921875 L 2.6875 -4.921875 C 2.65625 -4.921875 2.640625 -4.910156 2.640625 -4.890625 L 2.640625 -0.125 C 2.640625 -0.0820312 2.628906 -0.0507812 2.609375 -0.03125 C 2.585938 -0.0078125 2.5625 0 2.53125 0 L 2 0 C 1.957031 0 1.925781 -0.0078125 1.90625 -0.03125 C 1.882812 -0.0507812 1.875 -0.0820312 1.875 -0.125 L 1.875 -4.890625 C 1.875 -4.910156 1.863281 -4.921875 1.84375 -4.921875 L 0.421875 -4.921875 C 0.390625 -4.921875 0.359375 -4.929688 0.328125 -4.953125 C 0.304688 -4.972656 0.296875 -5.003906 0.296875 -5.046875 L 0.296875 -5.484375 C 0.296875 -5.515625 0.304688 -5.539062 0.328125 -5.5625 C 0.359375 -5.582031 0.390625 -5.59375 0.421875 -5.59375 Z M 4.171875 -5.59375 "/></g></g></g><g fill="#ffffff" fill-opacity="1"><g transform="translate(205.347135, 213.588843)"><g/></g></g><g fill="#ffffff" fill-opacity="1"><g transform="translate(210.547168, 213.588843)"><g><path d="M 4.890625 -0.140625 C 4.921875 -0.109375 4.9375 -0.0820312 4.9375 -0.0625 C 4.9375 -0.0195312 4.898438 0 4.828125 0 L 4.234375 0 C 4.179688 0 4.132812 -0.0195312 4.09375 -0.0625 L 3.703125 -0.5 C 3.691406 -0.519531 3.671875 -0.523438 3.640625 -0.515625 C 3.390625 -0.316406 3.132812 -0.171875 2.875 -0.078125 C 2.613281 0.015625 2.332031 0.0625 2.03125 0.0625 C 1.550781 0.0625 1.160156 -0.046875 0.859375 -0.265625 C 0.554688 -0.492188 0.40625 -0.828125 0.40625 -1.265625 C 0.40625 -1.640625 0.503906 -1.953125 0.703125 -2.203125 C 0.910156 -2.460938 1.191406 -2.703125 1.546875 -2.921875 C 1.566406 -2.941406 1.566406 -2.960938 1.546875 -2.984375 C 1.253906 -3.335938 1.054688 -3.601562 0.953125 -3.78125 C 0.859375 -3.96875 0.8125 -4.148438 0.8125 -4.328125 C 0.8125 -4.722656 0.941406 -5.039062 1.203125 -5.28125 C 1.472656 -5.53125 1.828125 -5.65625 2.265625 -5.65625 C 2.703125 -5.65625 3.0625 -5.535156 3.34375 -5.296875 C 3.625 -5.054688 3.765625 -4.742188 3.765625 -4.359375 C 3.765625 -4.023438 3.664062 -3.742188 3.46875 -3.515625 C 3.28125 -3.285156 3.003906 -3.0625 2.640625 -2.84375 C 2.617188 -2.820312 2.617188 -2.800781 2.640625 -2.78125 L 3.65625 -1.59375 L 3.703125 -1.5625 C 3.710938 -1.539062 3.726562 -1.539062 3.75 -1.5625 C 3.875 -1.707031 4.035156 -1.921875 4.234375 -2.203125 C 4.265625 -2.242188 4.300781 -2.265625 4.34375 -2.265625 C 4.363281 -2.265625 4.382812 -2.253906 4.40625 -2.234375 L 4.796875 -2.03125 C 4.828125 -2 4.84375 -1.960938 4.84375 -1.921875 C 4.84375 -1.898438 4.835938 -1.878906 4.828125 -1.859375 C 4.585938 -1.515625 4.375 -1.238281 4.1875 -1.03125 L 4.1875 -1.015625 C 4.1875 -0.984375 4.195312 -0.957031 4.21875 -0.9375 Z M 2.28125 -4.953125 C 2.070312 -4.953125 1.898438 -4.894531 1.765625 -4.78125 C 1.640625 -4.664062 1.578125 -4.515625 1.578125 -4.328125 C 1.578125 -4.222656 1.613281 -4.109375 1.6875 -3.984375 C 1.757812 -3.859375 1.914062 -3.648438 2.15625 -3.359375 C 2.164062 -3.335938 2.179688 -3.335938 2.203125 -3.359375 C 2.460938 -3.523438 2.660156 -3.679688 2.796875 -3.828125 C 2.929688 -3.984375 3 -4.15625 3 -4.34375 C 3 -4.53125 2.929688 -4.675781 2.796875 -4.78125 C 2.660156 -4.894531 2.488281 -4.953125 2.28125 -4.953125 Z M 2.046875 -0.59375 C 2.421875 -0.59375 2.800781 -0.738281 3.1875 -1.03125 C 3.207031 -1.050781 3.207031 -1.070312 3.1875 -1.09375 L 2.96875 -1.359375 C 2.84375 -1.503906 2.734375 -1.628906 2.640625 -1.734375 C 2.453125 -1.941406 2.304688 -2.101562 2.203125 -2.21875 L 2.046875 -2.40625 C 2.023438 -2.425781 2.003906 -2.429688 1.984375 -2.421875 C 1.710938 -2.234375 1.507812 -2.050781 1.375 -1.875 C 1.238281 -1.707031 1.171875 -1.515625 1.171875 -1.296875 C 1.171875 -1.078125 1.25 -0.90625 1.40625 -0.78125 C 1.5625 -0.65625 1.773438 -0.59375 2.046875 -0.59375 Z M 2.046875 -0.59375 "/></g></g></g><g fill="#ffffff" fill-opacity="1"><g transform="translate(219.563227, 213.588843)"><g/></g></g><g fill="#ffffff" fill-opacity="1"><g transform="translate(224.763254, 213.588843)"><g><path d="M 2.453125 0.078125 C 2.066406 0.078125 1.722656 0 1.421875 -0.15625 C 1.128906 -0.3125 0.898438 -0.523438 0.734375 -0.796875 C 0.578125 -1.078125 0.5 -1.398438 0.5 -1.765625 L 0.5 -3.84375 C 0.5 -4.207031 0.578125 -4.523438 0.734375 -4.796875 C 0.898438 -5.066406 1.128906 -5.273438 1.421875 -5.421875 C 1.722656 -5.578125 2.066406 -5.65625 2.453125 -5.65625 C 2.835938 -5.65625 3.175781 -5.582031 3.46875 -5.4375 C 3.757812 -5.289062 3.988281 -5.082031 4.15625 -4.8125 C 4.320312 -4.550781 4.40625 -4.242188 4.40625 -3.890625 C 4.40625 -3.835938 4.363281 -3.804688 4.28125 -3.796875 L 3.75 -3.765625 L 3.71875 -3.765625 C 3.695312 -3.765625 3.675781 -3.769531 3.65625 -3.78125 C 3.632812 -3.789062 3.625 -3.800781 3.625 -3.8125 L 3.625 -3.859375 C 3.625 -4.203125 3.515625 -4.476562 3.296875 -4.6875 C 3.085938 -4.894531 2.804688 -5 2.453125 -5 C 2.097656 -5 1.8125 -4.894531 1.59375 -4.6875 C 1.375 -4.476562 1.265625 -4.203125 1.265625 -3.859375 L 1.265625 -1.734375 C 1.265625 -1.390625 1.375 -1.113281 1.59375 -0.90625 C 1.8125 -0.695312 2.097656 -0.59375 2.453125 -0.59375 C 2.804688 -0.59375 3.085938 -0.695312 3.296875 -0.90625 C 3.515625 -1.113281 3.625 -1.390625 3.625 -1.734375 C 3.625 -1.765625 3.632812 -1.785156 3.65625 -1.796875 C 3.6875 -1.816406 3.71875 -1.828125 3.75 -1.828125 L 4.28125 -1.796875 C 4.363281 -1.785156 4.40625 -1.769531 4.40625 -1.75 L 4.40625 -1.71875 C 4.40625 -1.363281 4.320312 -1.050781 4.15625 -0.78125 C 3.988281 -0.507812 3.757812 -0.296875 3.46875 -0.140625 C 3.175781 0.00390625 2.835938 0.078125 2.453125 0.078125 Z M 2.453125 0.078125 "/></g></g></g><g fill="#ffffff" fill-opacity="1"><g transform="translate(233.219314, 213.588843)"><g><path d="M 4.09375 0 C 4.019531 0 3.972656 -0.03125 3.953125 -0.09375 L 3.671875 -0.984375 C 3.660156 -1.015625 3.644531 -1.03125 3.625 -1.03125 L 1.40625 -1.03125 C 1.382812 -1.03125 1.367188 -1.015625 1.359375 -0.984375 L 1.078125 -0.09375 C 1.054688 -0.03125 1.007812 0 0.9375 0 L 0.375 0 C 0.28125 0 0.25 -0.046875 0.28125 -0.140625 L 2.015625 -5.5 C 2.035156 -5.5625 2.078125 -5.59375 2.140625 -5.59375 L 2.875 -5.59375 C 2.945312 -5.59375 2.992188 -5.5625 3.015625 -5.5 L 4.765625 -0.140625 C 4.765625 -0.128906 4.765625 -0.113281 4.765625 -0.09375 C 4.765625 -0.03125 4.726562 0 4.65625 0 Z M 1.5625 -1.6875 C 1.5625 -1.644531 1.570312 -1.625 1.59375 -1.625 L 3.4375 -1.625 C 3.46875 -1.625 3.476562 -1.644531 3.46875 -1.6875 L 2.53125 -4.65625 C 2.53125 -4.6875 2.523438 -4.703125 2.515625 -4.703125 C 2.503906 -4.703125 2.492188 -4.6875 2.484375 -4.65625 Z M 1.5625 -1.6875 "/></g></g></g><g fill="#ffffff" fill-opacity="1"><g transform="translate(241.859375, 213.588843)"><g><path d="M 4.375 -5.0625 C 4.375 -5.019531 4.359375 -4.988281 4.328125 -4.96875 C 4.304688 -4.945312 4.28125 -4.9375 4.25 -4.9375 L 1.46875 -4.9375 C 1.4375 -4.9375 1.421875 -4.921875 1.421875 -4.890625 L 1.421875 -3.1875 C 1.421875 -3.164062 1.4375 -3.15625 1.46875 -3.15625 L 3.359375 -3.15625 C 3.398438 -3.15625 3.429688 -3.144531 3.453125 -3.125 C 3.472656 -3.101562 3.484375 -3.070312 3.484375 -3.03125 L 3.484375 -2.609375 C 3.484375 -2.566406 3.472656 -2.535156 3.453125 -2.515625 C 3.429688 -2.492188 3.398438 -2.484375 3.359375 -2.484375 L 1.46875 -2.484375 C 1.4375 -2.484375 1.421875 -2.472656 1.421875 -2.453125 L 1.421875 -0.125 C 1.421875 -0.0820312 1.410156 -0.0507812 1.390625 -0.03125 C 1.367188 -0.0078125 1.335938 0 1.296875 0 L 0.78125 0 C 0.738281 0 0.707031 -0.0078125 0.6875 -0.03125 C 0.664062 -0.0507812 0.65625 -0.0820312 0.65625 -0.125 L 0.65625 -5.484375 C 0.65625 -5.515625 0.664062 -5.539062 0.6875 -5.5625 C 0.707031 -5.582031 0.738281 -5.59375 0.78125 -5.59375 L 4.25 -5.59375 C 4.28125 -5.59375 4.304688 -5.582031 4.328125 -5.5625 C 4.359375 -5.539062 4.375 -5.515625 4.375 -5.484375 Z M 4.375 -5.0625 "/></g></g></g><g fill="#ffffff" fill-opacity="1"><g transform="translate(249.979425, 213.588843)"><g><path d="M 4.375 -5.0625 C 4.375 -5.019531 4.363281 -4.988281 4.34375 -4.96875 C 4.320312 -4.945312 4.289062 -4.9375 4.25 -4.9375 L 1.46875 -4.9375 C 1.4375 -4.9375 1.421875 -4.921875 1.421875 -4.890625 L 1.421875 -3.1875 C 1.421875 -3.164062 1.4375 -3.15625 1.46875 -3.15625 L 3.375 -3.15625 C 3.40625 -3.15625 3.429688 -3.144531 3.453125 -3.125 C 3.472656 -3.101562 3.484375 -3.070312 3.484375 -3.03125 L 3.484375 -2.609375 C 3.484375 -2.566406 3.472656 -2.535156 3.453125 -2.515625 C 3.429688 -2.492188 3.40625 -2.484375 3.375 -2.484375 L 1.46875 -2.484375 C 1.4375 -2.484375 1.421875 -2.472656 1.421875 -2.453125 L 1.421875 -0.703125 C 1.421875 -0.671875 1.4375 -0.65625 1.46875 -0.65625 L 4.25 -0.65625 C 4.289062 -0.65625 4.320312 -0.644531 4.34375 -0.625 C 4.363281 -0.601562 4.375 -0.578125 4.375 -0.546875 L 4.375 -0.125 C 4.375 -0.0820312 4.363281 -0.0507812 4.34375 -0.03125 C 4.320312 -0.0078125 4.289062 0 4.25 0 L 0.78125 0 C 0.738281 0 0.707031 -0.0078125 0.6875 -0.03125 C 0.664062 -0.0507812 0.65625 -0.0820312 0.65625 -0.125 L 0.65625 -5.484375 C 0.65625 -5.515625 0.664062 -5.539062 0.6875 -5.5625 C 0.707031 -5.582031 0.738281 -5.59375 0.78125 -5.59375 L 4.25 -5.59375 C 4.289062 -5.59375 4.320312 -5.582031 4.34375 -5.5625 C 4.363281 -5.539062 4.375 -5.515625 4.375 -5.484375 Z M 4.375 -5.0625 "/></g></g></g></svg>